<svg fill="none" height="24" viewBox="0 0 24 24" width="24" xmlns="http://www.w3.org/2000/svg"><path d="m10.5543 6.23925-3.38291-3.90338c-.39029-.45033-1.10492-.44742-1.5581.00636l-2.78195 2.78564c-.82795.82905-1.06494 2.06033-.58652 3.04731 2.88158 5.94472 7.62483 10.69432 13.56168 13.57972.9857.479 2.2154.2417 3.0433-.5873l2.8084-2.8122c.455-.4555.4558-1.1744.002-1.564l-3.9206-3.365c-.4103-.3522-1.0469-.306-1.4581.1058l-1.3638 1.3656c-.1517.1519-.3797.1882-.5531.0882-2.2332-1.2876-4.074-3.1308-5.35993-5.36696-.09986-.17365-.06354-.40198.0881-.55382l1.35963-1.36145c.413-.41353.4576-1.05412.1019-1.46452z" stroke="#000" stroke-linecap="round" stroke-linejoin="round" stroke-width="2"/></svg>