<svg version="1.1" id="Layer_1" xmlns="http://www.w3.org/2000/svg" xmlns:xlink="http://www.w3.org/1999/xlink" x="0px" y="0px"
	 width="100%" viewBox="0 0 500 500" enable-background="new 0 0 500 500" xml:space="preserve">
<path fill="#000000" opacity="1.000000" stroke="none" 
	d="
M501.000000,177.000000 
	C501.000000,285.333313 501.000000,393.166595 501.000000,500.999939 
	C334.333405,500.999939 167.666794,500.999939 1.000147,500.999969 
	C1.000098,334.333435 1.000098,167.666870 1.000049,1.000237 
	C167.666519,1.000158 334.333038,1.000158 500.999786,1.000079 
	C501.000000,59.500000 501.000000,118.000000 501.000000,177.000000 
M67.484970,346.997528 
	C72.654823,355.337585 77.546799,363.866364 83.054626,371.976929 
	C93.298302,387.061249 106.046379,400.001160 120.115334,411.417877 
	C135.928360,424.249908 153.496246,434.357147 172.420029,442.155273 
	C191.833725,450.155212 211.988037,455.245056 232.789734,456.761963 
	C246.110550,457.733429 259.625671,456.711487 273.014282,455.918213 
	C291.195740,454.840942 308.503845,449.837646 325.449432,443.261932 
	C357.943787,430.652618 385.326416,411.076050 408.022980,384.621918 
	C422.267700,368.018890 433.461639,349.628540 441.761719,329.524506 
	C451.421692,306.126465 456.959686,281.814453 457.112671,256.297119 
	C457.215454,239.151398 456.602264,222.121872 452.695038,205.403793 
	C447.733429,184.174271 439.750580,164.103409 428.729980,145.233307 
	C416.199066,123.777084 400.092590,105.328827 380.983429,89.671829 
	C365.227112,76.761948 347.672455,66.569824 328.683350,58.932884 
	C306.096283,49.848946 282.820190,44.385731 258.365326,43.921432 
	C240.713364,43.586296 223.125946,44.140274 205.926575,48.133202 
	C184.719131,53.056625 164.591843,60.970406 145.705093,71.983002 
	C124.098427,84.581558 105.499008,100.740173 89.712616,119.963585 
	C76.674889,135.839890 66.493073,153.586655 58.708359,172.671921 
	C51.920631,189.312897 47.039711,206.523651 45.184952,224.339050 
	C43.868279,236.985992 43.601810,249.852524 44.210022,262.556702 
	C44.751308,273.862854 46.681835,285.168182 48.816944,296.317291 
	C52.189571,313.928497 58.887379,330.441956 67.484970,346.997528 
z"/>
<path fill="#FEFBFB" opacity="1.000000" stroke="none" 
	d="
M67.256409,346.687195 
	C58.887379,330.441956 52.189571,313.928497 48.816944,296.317291 
	C46.681835,285.168182 44.751308,273.862854 44.210022,262.556702 
	C43.601810,249.852524 43.868279,236.985992 45.184952,224.339050 
	C47.039711,206.523651 51.920631,189.312897 58.708359,172.671921 
	C66.493073,153.586655 76.674889,135.839890 89.712616,119.963585 
	C105.499008,100.740173 124.098427,84.581558 145.705093,71.983002 
	C164.591843,60.970406 184.719131,53.056625 205.926575,48.133202 
	C223.125946,44.140274 240.713364,43.586296 258.365326,43.921432 
	C282.820190,44.385731 306.096283,49.848946 328.683350,58.932884 
	C347.672455,66.569824 365.227112,76.761948 380.983429,89.671829 
	C400.092590,105.328827 416.199066,123.777084 428.729980,145.233307 
	C439.750580,164.103409 447.733429,184.174271 452.695038,205.403793 
	C456.602264,222.121872 457.215454,239.151398 457.112671,256.297119 
	C456.959686,281.814453 451.421692,306.126465 441.761719,329.524506 
	C433.461639,349.628540 422.267700,368.018890 408.022980,384.621918 
	C385.326416,411.076050 357.943787,430.652618 325.449432,443.261932 
	C308.503845,449.837646 291.195740,454.840942 273.014282,455.918213 
	C259.625671,456.711487 246.110550,457.733429 232.789734,456.761963 
	C211.988037,455.245056 191.833725,450.155212 172.420029,442.155273 
	C153.496246,434.357147 135.928360,424.249908 120.115334,411.417877 
	C106.046379,400.001160 93.298302,387.061249 83.054626,371.976929 
	C77.546799,363.866364 72.654823,355.337585 67.256409,346.687195 
M116.291634,102.894905 
	C116.189354,102.925987 116.087067,102.957062 115.539818,103.187065 
	C115.261292,103.378944 115.070145,103.635849 114.280548,104.023788 
	C111.858788,106.495041 109.437019,108.966293 106.364288,111.761909 
	C104.279243,114.021835 102.194199,116.281769 99.872772,118.713921 
	C99.721245,118.844528 99.599953,118.998894 99.008949,119.520638 
	C98.310051,120.473427 97.611153,121.426216 96.359558,122.718559 
	C95.869209,123.416000 95.378860,124.113449 94.351830,125.075813 
	C93.920082,125.727585 93.488335,126.379356 92.543808,127.457375 
	C64.687592,163.705444 50.726532,204.668243 51.031002,250.401886 
	C51.265728,285.660156 61.177109,318.311798 78.378326,348.844849 
	C106.143456,398.129303 147.292801,430.562836 201.826447,445.680450 
	C215.147247,449.373199 228.808640,451.492676 242.776840,451.065948 
	C251.955826,450.785553 261.150330,451.013000 270.337860,451.013000 
	C265.541077,449.816528 260.742523,449.913696 255.949661,449.789673 
	C250.961166,449.660645 245.971512,449.408661 240.994705,449.042908 
	C236.179764,448.689056 231.353577,448.303680 226.581955,447.597076 
	C221.868866,446.899139 217.217865,445.781830 212.539642,444.848511 
	C223.632935,444.883362 234.555740,445.772614 245.496323,446.160583 
	C292.434143,447.824951 334.905487,434.899200 372.522522,406.628723 
	C378.500854,402.135803 384.016876,397.024750 389.712463,392.159454 
	C395.898529,386.875244 403.159454,382.404999 408.030212,376.096313 
	C443.987793,329.523407 459.156891,276.772949 447.350616,218.915756 
	C432.001495,143.696625 389.645966,89.268951 316.366699,61.376202 
	C288.927765,50.931946 260.427185,49.720352 231.503998,52.001442 
	C254.755173,50.826077 277.562927,53.094563 300.381622,59.700706 
	C299.624054,60.341095 299.491730,60.541843 299.386658,60.528469 
	C297.761353,60.321533 296.126678,60.154579 294.518890,59.848549 
	C260.802368,53.430870 227.287537,53.874218 194.095840,63.073078 
	C164.186096,71.362366 138.128906,86.648239 115.023033,106.421471 
	C115.027199,105.623566 115.031357,104.825668 115.460571,103.796310 
	C115.727264,103.593987 115.910614,103.333084 116.291634,102.894905 
M117.516647,100.421562 
	C117.516647,100.421562 117.576897,100.527382 117.516647,100.421562 
z"/>
<path fill="#BC3F3F" opacity="1.000000" stroke="none" 
	d="
M115.050453,107.219032 
	C138.128906,86.648239 164.186096,71.362366 194.095840,63.073078 
	C227.287537,53.874218 260.802368,53.430870 294.518890,59.848549 
	C296.126678,60.154579 297.761353,60.321533 299.386658,60.528469 
	C299.491730,60.541843 299.624054,60.341095 300.381622,59.700706 
	C277.562927,53.094563 254.755173,50.826077 231.503998,52.001442 
	C260.427185,49.720352 288.927765,50.931946 316.366699,61.376202 
	C389.645966,89.268951 432.001495,143.696625 447.350616,218.915756 
	C459.156891,276.772949 443.987793,329.523407 408.030212,376.096313 
	C403.159454,382.404999 395.898529,386.875244 389.712463,392.159454 
	C384.016876,397.024750 378.500854,402.135803 372.522522,406.628723 
	C334.905487,434.899200 292.434143,447.824951 245.496323,446.160583 
	C234.555740,445.772614 223.632935,444.883362 212.539642,444.848511 
	C217.217865,445.781830 221.868866,446.899139 226.581955,447.597076 
	C231.353577,448.303680 236.179764,448.689056 240.994705,449.042908 
	C245.971512,449.408661 250.961166,449.660645 255.949661,449.789673 
	C260.742523,449.913696 265.541077,449.816528 270.337860,451.013000 
	C261.150330,451.013000 251.955826,450.785553 242.776840,451.065948 
	C228.808640,451.492676 215.147247,449.373199 201.826447,445.680450 
	C147.292801,430.562836 106.143456,398.129303 78.378326,348.844849 
	C61.177109,318.311798 51.265728,285.660156 51.031002,250.401886 
	C50.726532,204.668243 64.687592,163.705444 93.083839,127.361465 
	C94.786545,126.889061 95.949226,126.512581 97.427948,126.056610 
	C98.480270,124.482391 99.216545,122.987648 100.321411,121.376099 
	C101.809547,119.831505 102.929092,118.403709 104.014374,116.979324 
	C103.980110,116.982735 103.979073,117.051590 104.368484,117.212433 
	C104.856407,116.912643 104.954918,116.452011 105.022026,115.991104 
	C104.990623,115.990822 104.992447,116.053604 105.377655,116.212456 
	C105.859634,115.915695 105.956398,115.460083 106.024780,115.000626 
	C105.996399,114.996773 106.005707,115.053299 106.385582,115.211807 
	C106.860291,114.920441 106.955124,114.470581 107.025879,114.016327 
	C107.001793,114.011940 107.024246,114.055702 107.346268,114.270271 
	C110.129005,112.062904 112.589729,109.640968 115.050453,107.219032 
M109.065155,379.294281 
	C108.889214,378.996216 108.636253,378.794983 108.092941,378.116974 
	C107.409149,377.384644 106.725357,376.652283 105.830544,375.411163 
	C105.439713,375.024200 105.048889,374.637207 104.390556,373.804199 
	C104.030640,373.436554 103.670723,373.068909 103.067039,372.054596 
	C101.269386,369.745697 99.471725,367.436798 97.674072,365.127899 
	C97.173393,365.560150 96.672707,365.992401 96.172028,366.424652 
	C98.228493,368.885345 100.284966,371.346008 102.598885,374.246704 
	C102.962730,374.596832 103.326584,374.946991 103.884811,375.817108 
	C104.273369,376.203308 104.661926,376.589508 105.270485,377.556610 
	C106.005898,378.283997 106.741318,379.011353 107.688576,380.021332 
	C107.841545,380.204010 108.016220,380.362793 108.448532,380.910767 
	C108.675468,381.129059 108.916397,381.330597 109.687416,382.059784 
	C110.051086,382.077362 110.414764,382.094940 110.778435,382.112518 
	C110.589478,381.670593 110.400528,381.228668 110.030319,380.326416 
	C109.844627,380.032166 109.583450,379.841095 109.065155,379.294281 
M112.024063,382.863739 
	C111.755508,382.932831 111.486946,383.001923 111.218384,383.071014 
	C111.438049,383.418488 111.657707,383.765961 112.066269,384.578308 
	C112.343750,384.750549 112.621231,384.922791 113.074173,385.568390 
	C113.354240,385.738647 113.634300,385.908875 114.081406,386.559998 
	C114.365578,386.726715 114.649757,386.893463 115.097038,387.556854 
	C115.397102,387.705688 115.697166,387.854523 116.147285,388.459381 
	C116.346024,388.371704 116.544769,388.284027 116.743515,388.196320 
	C116.504700,388.118958 116.265884,388.041595 116.303123,387.436707 
	C116.047516,387.141418 115.791916,386.846161 115.276093,386.135040 
	C115.079910,385.862762 114.841583,385.634521 114.274132,385.058929 
	C114.076973,384.791504 113.841354,384.563904 113.257065,383.953156 
	C112.994278,383.721191 112.731491,383.489197 112.024063,382.863739 
M400.926849,132.678787 
	C401.159668,132.912674 401.392487,133.146561 401.920837,134.044815 
	C402.550385,134.431442 403.179932,134.818054 403.809479,135.204681 
	C403.950043,135.012909 404.090637,134.821152 404.231201,134.629379 
	C403.667542,133.861053 403.103882,133.092712 402.333893,132.003021 
	C402.175140,131.801056 401.989624,131.627701 401.477234,130.974625 
	C401.036407,130.603088 400.595551,130.231537 399.907379,129.336212 
	C399.447174,129.294861 398.986969,129.253525 398.526764,129.212173 
	C398.806732,129.660263 399.086700,130.108353 399.651672,131.034515 
	C400.039429,131.418030 400.427216,131.801529 400.926849,132.678787 
M405.015320,135.768311 
	C404.878876,136.308899 404.742401,136.849503 404.818024,137.909592 
	C405.287231,138.476913 405.756470,139.044220 406.503021,140.242340 
	C411.400452,149.057144 416.297852,157.871964 420.935486,167.201233 
	C420.656982,167.455872 420.378479,167.710526 419.730469,167.374115 
	C406.496918,141.103531 388.625092,118.542076 365.035614,100.901665 
	C318.491638,66.095726 267.095581,51.815823 209.594070,66.153976 
	C159.101074,78.744545 119.212280,106.630264 91.687363,151.043060 
	C84.055099,163.358109 78.365471,176.887314 71.967735,189.949188 
	C70.582169,192.778015 69.984238,195.992599 68.382088,199.029114 
	C67.914520,199.339417 67.446953,199.649719 66.588394,200.390152 
	C66.469460,200.945633 66.350525,201.501099 66.004189,202.673630 
	C65.968193,203.108704 65.932190,203.543762 65.471573,204.375473 
	C65.376099,204.935547 65.280624,205.495636 64.908836,206.826965 
	C54.239555,250.730057 58.037746,293.350342 76.507896,334.576843 
	C81.391426,345.477142 87.518280,355.676392 95.241051,364.756256 
	C95.679192,364.481506 96.117325,364.206787 96.555466,363.932068 
	C92.973625,357.723602 89.391785,351.515167 86.063965,344.789703 
	C86.345329,344.538177 86.626686,344.286682 87.317375,344.583832 
	C97.154305,361.138367 108.620506,376.431183 122.873924,389.455902 
	C161.859726,425.080933 207.396667,443.846619 260.604645,441.005768 
	C306.858215,438.536255 346.355957,419.775513 380.028534,388.356079 
	C396.004700,373.448944 408.574341,355.925018 419.238678,337.287720 
	C421.800354,336.493469 427.545197,328.213684 426.715942,326.213287 
	C426.557556,325.831238 424.922241,326.061523 424.039032,325.310822 
	C424.943939,323.462830 425.848846,321.614838 426.926666,320.438751 
	C427.375427,321.091248 427.824188,321.743774 428.272949,322.396301 
	C428.555450,322.107361 428.837921,321.818451 429.120422,321.529541 
	C428.342041,320.928467 427.563629,320.327393 426.714264,319.129150 
	C426.863007,318.758270 427.011749,318.387421 427.576355,318.016388 
	C427.576355,318.016388 427.991821,317.998749 428.234009,318.666199 
	C429.449860,316.760773 430.665710,314.855347 432.131317,312.380280 
	C432.377350,311.597260 432.623383,310.814209 433.203217,309.390930 
	C433.744385,307.566742 434.285522,305.742554 435.054016,303.176270 
	C445.270020,267.970367 445.756470,232.640579 436.260834,197.223251 
	C430.518646,175.805710 421.397491,156.030411 407.073517,138.170456 
	C406.555450,137.533890 406.037384,136.897324 405.015320,135.768311 
M129.804749,99.456795 
	C92.319038,126.340706 52.694180,193.126328 57.500622,221.947189 
	C58.208416,220.363129 58.686962,218.710266 59.036045,217.030502 
	C64.093552,192.694046 73.200203,170.029709 86.689415,149.106552 
	C98.809059,130.307724 114.170860,114.521835 131.938950,100.045578 
	C132.790710,99.195366 133.642471,98.345146 134.494232,97.494926 
	C134.206757,97.218880 133.919281,96.942841 133.631805,96.666794 
	C132.561096,97.492470 131.490387,98.318138 129.804749,99.456795 
M413.667236,355.135254 
	C401.438690,373.344025 386.146240,388.701416 369.062836,402.736359 
	C394.747742,400.253052 456.261108,296.517883 444.567108,275.542145 
	C439.952423,304.137299 429.947723,330.475983 413.667236,355.135254 
M135.403961,95.223915 
	C135.550888,95.763130 135.697830,96.302345 135.844772,96.841568 
	C137.240524,95.824173 138.636261,94.806770 140.031998,93.789375 
	C139.837585,93.475822 139.643158,93.162277 139.448746,92.848732 
	C138.308395,93.496696 137.168030,94.144661 135.403961,95.223915 
M418.596100,343.514709 
	C418.596100,343.514709 418.475891,343.589203 418.596100,343.514709 
z"/>
<path fill="#F6E4E4" opacity="1.000000" stroke="none" 
	d="
M115.036743,106.820251 
	C112.589729,109.640968 110.129005,112.062904 107.354469,113.824867 
	C107.032188,112.589111 107.023720,112.013329 107.015259,111.437546 
	C109.437019,108.966293 111.858788,106.495041 114.639351,104.009659 
	C114.998154,103.995537 115.035515,104.027763 115.035515,104.027763 
	C115.031357,104.825668 115.027199,105.623566 115.036743,106.820251 
z"/>
<path fill="#C45454" opacity="1.000000" stroke="none" 
	d="
M99.952820,121.492905 
	C99.216545,122.987648 98.480270,124.482391 97.371475,125.991379 
	C96.998947,126.005623 96.882652,125.878136 96.922852,125.444427 
	C96.946121,124.133484 96.929192,123.256248 96.912262,122.379005 
	C97.611153,121.426216 98.310051,120.473427 99.387985,119.593933 
	C99.881683,119.811989 99.996338,119.956749 100.075516,120.449814 
	C100.010971,121.029709 99.981895,121.261307 99.952820,121.492905 
z"/>
<path fill="#C45454" opacity="1.000000" stroke="none" 
	d="
M106.689774,111.599731 
	C107.023720,112.013329 107.032188,112.589111 107.032455,113.610298 
	C107.024246,114.055702 107.001793,114.011940 106.720825,114.002609 
	C106.295135,114.346626 106.150421,114.699966 106.005707,115.053299 
	C106.005707,115.053299 105.996399,114.996773 105.731941,115.021393 
	C105.309143,115.381874 105.150795,115.717743 104.992447,116.053604 
	C104.992447,116.053604 104.990623,115.990822 104.738297,116.032166 
	C104.317009,116.399544 104.148041,116.725563 103.979073,117.051590 
	C103.979073,117.051590 103.980110,116.982735 103.720276,117.065170 
	C102.721085,117.845146 101.981728,118.542702 100.974289,119.040909 
	C100.507195,118.741615 100.308174,118.641655 100.109154,118.541695 
	C102.194199,116.281769 104.279243,114.021835 106.689774,111.599731 
z"/>
<path fill="#C45454" opacity="1.000000" stroke="none" 
	d="
M97.055420,126.070862 
	C95.949226,126.512581 94.786545,126.889061 93.340233,127.148338 
	C93.488335,126.379356 93.920082,125.727585 94.779190,125.205048 
	C95.765259,125.515556 96.323952,125.696846 96.882652,125.878136 
	C96.882652,125.878136 96.998947,126.005623 97.055420,126.070862 
z"/>
<path fill="#BC3F3F" opacity="1.000000" stroke="none" 
	d="
M96.922852,125.444427 
	C96.323952,125.696846 95.765259,125.515556 95.047531,125.072586 
	C95.378860,124.113449 95.869209,123.416000 96.635910,122.548782 
	C96.929192,123.256248 96.946121,124.133484 96.922852,125.444427 
z"/>
<path fill="#F6E4E4" opacity="1.000000" stroke="none" 
	d="
M117.546768,100.474472 
	C117.576897,100.527382 117.516647,100.421562 117.546768,100.474472 
z"/>
<path fill="#F6E4E4" opacity="1.000000" stroke="none" 
	d="
M115.984787,102.988144 
	C116.087067,102.957062 116.189354,102.925987 116.145485,102.947205 
	C115.999336,102.999504 115.984787,102.988144 115.984787,102.988144 
z"/>
<path fill="#F6E4E4" opacity="1.000000" stroke="none" 
	d="
M114.982269,103.976654 
	C115.070145,103.635849 115.261292,103.378944 115.762299,103.087601 
	C115.984787,102.988144 115.999336,102.999504 116.004982,103.006554 
	C115.910614,103.333084 115.727264,103.593987 115.248047,103.912033 
	C115.035515,104.027763 114.998154,103.995537 114.982269,103.976654 
z"/>
<path fill="#C45454" opacity="1.000000" stroke="none" 
	d="
M99.637962,119.422127 
	C99.599953,118.998894 99.721245,118.844528 99.990967,118.627808 
	C100.308174,118.641655 100.507195,118.741615 100.848404,119.254044 
	C100.736519,119.890625 100.443321,120.035622 100.111000,120.101501 
	C99.996338,119.956749 99.881683,119.811989 99.637962,119.422127 
z"/>
<path fill="#FFFEFE" opacity="1.000000" stroke="none" 
	d="
M426.753723,319.766815 
	C425.848846,321.614838 424.943939,323.462830 423.920959,325.745148 
	C423.802856,326.179474 423.908356,326.392120 423.644806,326.592804 
	C423.178894,327.415924 422.976532,328.038330 422.507996,328.890411 
	C421.124146,331.656555 420.006500,334.193085 418.888855,336.729584 
	C408.574341,355.925018 396.004700,373.448944 380.028534,388.356079 
	C346.355957,419.775513 306.858215,438.536255 260.604645,441.005768 
	C207.396667,443.846619 161.859726,425.080933 122.873924,389.455902 
	C108.620506,376.431183 97.154305,361.138367 87.049881,343.964294 
	C82.220322,333.906799 77.658249,324.468842 73.096176,315.030884 
	C72.607826,315.259766 72.119484,315.488678 71.631142,315.717560 
	C76.357407,325.580627 81.083679,335.443665 85.809944,345.306732 
	C89.391785,351.515167 92.973625,357.723602 96.555466,363.932068 
	C96.117325,364.206787 95.679192,364.481506 95.241051,364.756256 
	C87.518280,355.676392 81.391426,345.477142 76.507896,334.576843 
	C58.037746,293.350342 54.239555,250.730057 65.268814,206.626007 
	C66.331055,206.471100 67.602066,206.690292 67.648796,206.536774 
	C68.199348,204.728226 68.566566,202.863861 68.993393,201.002335 
	C69.004723,200.990463 69.023544,200.964050 69.258331,200.843781 
	C69.347504,200.181183 69.201889,199.638855 69.047363,199.080093 
	C69.038467,199.063675 69.023521,199.029510 69.023521,199.029510 
	C69.984238,195.992599 70.582169,192.778015 71.967735,189.949188 
	C78.365471,176.887314 84.055099,163.358109 91.687363,151.043060 
	C119.212280,106.630264 159.101074,78.744545 209.594070,66.153976 
	C267.095581,51.815823 318.491638,66.095726 365.035614,100.901665 
	C388.625092,118.542076 406.496918,141.103531 419.952698,168.027878 
	C423.416901,176.185715 426.658936,183.689774 429.900970,191.193832 
	C430.376984,190.988953 430.852997,190.784088 431.328979,190.579224 
	C427.951080,182.615067 424.573181,174.650925 421.195282,166.686768 
	C416.297852,157.871964 411.400452,149.057144 406.632019,139.725464 
	C406.927246,139.059372 407.093445,138.910172 407.259613,138.760971 
	C421.397491,156.030411 430.518646,175.805710 436.260834,197.223251 
	C445.756470,232.640579 445.270020,267.970367 434.719910,303.360168 
	C434.113739,302.841797 433.841614,302.139526 433.569519,301.437256 
	C433.212585,301.405487 432.855682,301.373749 432.498749,301.341980 
	C431.993134,304.222076 431.487518,307.102142 430.647858,310.019348 
	C429.897186,310.748260 429.480591,311.440063 428.967651,312.462402 
	C428.301086,314.534149 427.730804,316.275360 427.160522,318.016571 
	C427.011749,318.387421 426.863007,318.758270 426.858337,319.535492 
	C427.002441,319.941833 426.753723,319.766815 426.753723,319.766815 
M61.465309,248.435547 
	C61.646816,249.960068 61.828323,251.484589 62.006924,253.943893 
	C62.006924,259.431305 62.006924,264.918701 62.006924,270.406097 
	C62.334419,270.400604 62.661911,270.395111 62.989407,270.389618 
	C62.989407,264.597534 62.989407,258.805420 63.002003,252.206528 
	C62.997398,251.131500 62.992798,250.056473 62.990299,248.244019 
	C62.990299,247.140884 62.990299,246.037735 62.990299,244.934601 
	C62.760101,244.922516 62.529903,244.910431 62.299706,244.898346 
	C62.195168,245.929871 62.090633,246.961411 61.465309,248.435547 
M71.695511,311.634216 
	C71.661461,312.228516 71.627411,312.822845 71.593353,313.417145 
	C71.890816,313.430786 72.188271,313.444458 72.485733,313.458099 
	C72.349594,312.621002 72.213455,311.783875 72.043320,310.227448 
	C71.514641,308.893066 70.985970,307.558716 70.457291,306.224335 
	C69.940620,306.497803 69.423943,306.771240 68.907272,307.044678 
	C69.898949,308.389832 70.890633,309.734955 71.695511,311.634216 
M306.123749,318.743042 
	C303.750702,318.891754 301.377655,319.040497 299.068054,319.185242 
	C298.048157,330.540649 298.186981,330.966003 302.663452,330.393402 
	C303.693573,327.266998 300.962646,322.221588 307.754242,321.701843 
	C308.842102,324.084717 309.744781,326.580750 311.100555,328.799988 
	C311.723816,329.820190 313.229858,330.852844 314.345795,330.864105 
	C315.448212,330.875214 317.098907,329.857239 317.573059,328.850006 
	C319.008423,325.801025 319.989929,322.538361 321.237061,319.115265 
	C314.745697,317.866516 316.964813,324.078186 314.280273,325.864227 
	C311.881683,323.696259 313.502228,316.933136 306.123749,318.743042 
M225.077820,193.046600 
	C229.834396,194.105682 231.224411,197.184570 231.166885,201.859558 
	C230.974136,217.522385 230.934418,233.191559 231.183838,248.852783 
	C231.266571,254.048386 229.442947,256.605347 224.252136,257.116608 
	C223.045197,257.235504 221.974716,258.739807 220.841446,259.606659 
	C221.123627,260.020599 221.405807,260.434570 221.688004,260.848511 
	C234.328598,260.848511 246.998749,261.343048 259.594421,260.590820 
	C264.249512,260.312805 269.356079,257.934265 273.169037,255.067230 
	C283.686371,247.159103 281.840240,231.619736 270.046112,225.811066 
	C267.042969,224.331985 263.726227,223.489639 260.026001,222.166016 
	C261.622375,221.502472 262.798584,221.008804 263.978394,220.524002 
	C272.553436,217.000595 276.731110,210.850800 275.899750,202.971283 
	C275.162659,195.984970 270.155365,190.272629 261.268494,189.645157 
	C248.249969,188.725967 235.118378,189.408554 220.397003,189.408554 
	C222.315979,191.160828 223.283112,192.043930 225.077820,193.046600 
M176.644974,228.132095 
	C169.388748,238.761078 162.132507,249.390060 154.371338,260.758698 
	C174.708267,260.758698 193.790207,260.758698 213.342377,260.758698 
	C214.103409,253.547318 214.864044,246.339722 215.624680,239.132126 
	C215.206528,238.786942 214.788391,238.441757 214.370239,238.096573 
	C213.152893,239.314392 211.692810,240.371567 210.761505,241.778717 
	C207.310654,246.992844 205.219055,254.314117 198.526810,255.500229 
	C189.240036,257.146210 179.612839,256.871460 168.766418,257.497864 
	C184.847214,233.982025 199.893265,211.979355 215.450150,189.229675 
	C196.344864,189.229675 178.491745,189.229675 160.383026,189.229675 
	C159.688049,195.896973 159.022949,202.277451 158.357864,208.657928 
	C158.768967,208.982071 159.180084,209.306198 159.591187,209.630325 
	C160.849152,208.424942 162.349762,207.387527 163.321396,205.983948 
	C166.796143,200.964539 169.357574,194.430618 176.201630,193.711105 
	C183.978027,192.893555 191.906479,193.522247 200.319550,193.522247 
	C192.400955,205.089096 184.720169,216.308578 176.644974,228.132095 
M295.631378,261.012268 
	C303.920258,261.012268 312.209167,261.012268 320.498047,261.012268 
	C320.728424,260.426483 320.958801,259.840698 321.189178,259.254913 
	C319.785400,258.504700 318.457428,257.401917 316.961517,257.080444 
	C314.168488,256.480194 310.705322,256.473480 310.546295,252.833145 
	C310.208954,245.110840 310.443420,237.363571 310.443420,229.103256 
	C314.611542,229.103256 318.340210,229.611542 321.861298,228.973694 
	C326.195251,228.188614 330.689301,227.064346 334.522491,224.992203 
	C342.493042,220.683441 346.373901,211.725922 344.696594,203.463394 
	C343.210968,196.145233 336.912292,189.956970 327.884613,189.413910 
	C315.149750,188.647858 302.334412,189.219955 289.553467,189.219955 
	C289.306732,189.651566 289.059998,190.083176 288.813232,190.514786 
	C290.073669,191.323242 291.278412,192.709457 292.604401,192.837189 
	C297.560181,193.314636 299.440155,195.766144 299.387512,200.711868 
	C299.213928,217.021957 299.189331,233.336700 299.400330,249.645889 
	C299.463165,254.502670 297.522675,256.589020 292.881409,257.096588 
	C291.650635,257.231171 290.569366,258.733002 289.419434,259.607086 
	C289.690552,260.075470 289.961670,260.543884 290.232788,261.012268 
	C291.710938,261.012268 293.189056,261.012268 295.631378,261.012268 
M186.109375,336.819305 
	C192.074524,331.723511 188.453781,325.144714 189.483414,319.227448 
	C178.279190,318.498444 175.167603,319.733429 175.017075,324.670715 
	C174.875244,329.323273 178.140854,331.404053 185.233627,331.561829 
	C184.054825,332.900757 182.542923,334.353333 181.065979,334.318604 
	C179.341019,334.278076 177.646576,332.939423 175.938889,332.163940 
	C177.449860,337.870667 180.889450,338.861053 186.109375,336.819305 
M270.806244,311.981384 
	C267.598145,312.557373 264.475800,314.084137 265.257904,317.574738 
	C265.730133,319.682465 268.593964,321.423767 270.665131,322.946075 
	C272.124146,324.018463 274.057220,324.445801 276.082855,325.287567 
	C271.661011,332.220093 268.329224,322.117767 264.416199,325.573608 
	C264.620941,326.241028 264.703094,327.104279 265.116364,327.758331 
	C267.577026,331.652527 271.536926,332.095673 275.204315,330.801300 
	C277.204315,330.095428 279.555695,327.459717 279.840942,325.426697 
	C280.443665,321.131378 276.489594,320.450470 273.299805,319.432465 
	C271.944366,318.999878 270.720856,318.153778 269.437378,317.495636 
	C269.665131,316.853729 269.892883,316.211823 270.120636,315.569946 
	C273.042419,316.349884 275.964172,317.129852 279.356476,318.035431 
	C278.485077,312.831390 275.397186,311.910004 270.806244,311.981384 
M232.802841,330.950653 
	C233.510788,331.146057 234.218735,331.341492 234.926682,331.536926 
	C234.268051,333.913391 233.207642,335.550049 230.345551,334.213074 
	C228.803024,333.492523 227.207245,332.885956 225.635498,332.227966 
	C226.495560,336.866089 229.437149,338.755402 232.762817,337.698853 
	C235.174225,336.932770 238.210098,334.420990 238.718796,332.177673 
	C239.671402,327.976807 238.992920,323.406036 238.992920,318.963226 
	C236.644012,318.963226 234.845505,319.115997 233.081436,318.934357 
	C227.951965,318.406219 225.196091,320.167542 224.890961,324.341461 
	C224.585815,328.515594 227.011673,330.792725 232.802841,330.950653 
M242.724838,321.617340 
	C242.416824,322.705078 241.857330,323.790192 241.845856,324.881073 
	C241.804031,328.857361 244.648773,331.267883 249.055298,331.178650 
	C253.364014,331.091431 255.819733,328.368073 255.673279,323.839447 
	C255.579086,320.926422 251.968689,318.066895 248.415314,318.593353 
	C246.582443,318.864868 244.897446,320.134521 242.724838,321.617340 
M355.424011,319.068268 
	C354.123993,318.908997 352.799957,318.509094 351.528442,318.635803 
	C347.777466,319.009583 345.132812,321.019073 345.215759,324.941742 
	C345.303406,329.084534 348.073700,331.425507 352.081787,331.020172 
	C354.209259,330.805054 357.044342,329.491760 358.018311,327.791229 
	C359.630981,324.975494 359.807831,321.493744 355.424011,319.068268 
M282.029510,326.189178 
	C282.829437,327.408051 283.504364,329.547150 284.452362,329.675903 
	C287.489563,330.088531 291.140533,330.688934 293.538910,329.369934 
	C295.026215,328.552002 295.661560,324.057312 294.912476,321.799042 
	C293.788086,318.409241 290.205048,318.009979 286.881378,318.882874 
	C283.603058,319.743835 281.871094,321.921478 282.029510,326.189178 
M149.859039,331.043488 
	C152.084061,331.043488 154.309097,331.043488 156.733978,331.043488 
	C156.733978,326.776428 156.733978,323.033295 156.733978,318.939850 
	C154.574371,318.939850 152.634811,319.097351 150.729416,318.908997 
	C145.862671,318.427979 143.033310,320.025482 142.723297,323.996338 
	C142.384857,328.331421 144.327621,330.997925 149.859039,331.043488 
M221.968597,321.691986 
	C221.693298,320.806152 221.465897,319.171631 221.135300,319.150513 
	C217.889069,318.942932 214.290131,318.164459 211.485931,319.285522 
	C209.636429,320.024902 207.722534,323.794250 208.045654,325.861786 
	C208.356277,327.849243 211.249496,330.179047 213.484100,330.917572 
	C215.891327,331.713135 218.851700,330.835083 221.970337,330.665466 
	C221.970337,327.879730 221.970337,325.258972 221.968597,321.691986 
M372.356995,321.901917 
	C370.624115,320.746216 368.957947,318.814453 367.139099,318.658020 
	C365.398468,318.508331 363.034698,319.821899 361.863068,321.247192 
	C361.265900,321.973663 362.684692,324.357330 363.192261,325.991882 
	C362.004700,325.781097 360.934113,327.270935 361.254669,327.685791 
	C362.281647,329.014801 363.823334,330.838867 365.167053,330.839417 
	C367.741943,330.840515 370.317322,329.718475 372.892487,329.062469 
	C372.466125,327.454102 371.982330,325.857788 371.640656,324.231628 
	C371.497009,323.548157 371.653870,322.801514 372.356995,321.901917 
M160.061996,320.787323 
	C160.061996,324.079559 160.061996,327.371765 160.061996,330.540619 
	C163.122025,331.573456 164.450500,331.072235 164.472778,327.875702 
	C164.486893,325.849701 165.447830,323.830322 165.984146,321.807953 
	C166.622192,321.924561 167.260239,322.041138 167.898285,322.157715 
	C168.168915,325.013245 168.439545,327.868774 168.707397,330.694977 
	C172.689301,330.801849 172.689301,330.801849 172.849136,327.842041 
	C173.342010,318.714478 169.355728,316.214111 160.061996,320.787323 
M133.559479,331.063721 
	C135.683441,331.063721 137.807419,331.063721 140.129868,331.063721 
	C141.299210,324.787445 135.773666,328.340271 133.782196,325.966217 
	C133.782196,322.868011 133.690552,319.243134 133.808426,315.625092 
	C133.922195,312.132599 132.674637,311.087433 129.221878,312.843719 
	C129.221878,317.991669 129.040527,323.136475 129.376907,328.247253 
	C129.443146,329.253357 131.506851,330.127991 133.559479,331.063721 
M200.951431,319.560394 
	C200.145264,322.292175 202.211044,326.038574 197.409058,328.097076 
	C197.010544,324.930237 196.656830,322.119415 196.208771,318.558807 
	C194.777588,319.061249 192.516937,319.477295 192.512299,319.917175 
	C192.479462,323.026062 191.786453,327.730255 193.441498,328.899200 
	C196.306671,330.922852 200.718811,330.756287 204.992996,331.610535 
	C204.992996,327.498444 204.873367,324.531372 205.028183,321.578705 
	C205.170181,318.870728 203.769287,318.516724 200.951431,319.560394 
M330.005737,325.414795 
	C330.627106,329.304260 332.963043,331.222290 336.845367,331.167908 
	C339.798309,331.126587 342.303833,330.317535 343.131195,325.968262 
	C341.229004,326.550720 339.958466,327.134644 338.638611,327.284515 
	C337.509491,327.412781 335.474640,327.310883 335.327118,326.842560 
	C334.931244,325.585602 335.087891,323.982788 335.574371,322.730743 
	C335.709961,322.381866 337.778046,322.656403 338.921143,322.860413 
	C340.195831,323.087891 341.426697,323.560944 343.190674,324.077667 
	C342.556854,319.303894 339.564087,318.502625 336.606720,318.538239 
	C332.891418,318.582977 330.428589,320.669067 330.005737,325.414795 
M323.025055,325.443726 
	C323.048157,330.807526 323.048157,330.807526 326.767212,330.471069 
	C328.003937,319.641113 327.678986,318.639404 323.025085,319.674225 
	C323.025085,321.253204 323.025085,322.882996 323.025055,325.443726 
M69.508057,301.671936 
	C69.128273,302.108734 68.737167,302.537323 68.398903,303.004211 
	C68.380005,303.030273 68.797684,303.372650 69.012161,303.567810 
	C69.295609,303.078613 69.579063,302.589386 69.508057,301.671936 
M66.778244,295.597626 
	C67.139290,295.170959 67.519409,294.757202 67.830795,294.296936 
	C67.860687,294.252777 67.462952,293.919281 67.263733,293.720123 
	C66.965179,294.222900 66.666626,294.725677 66.778244,295.597626 
M65.889923,284.647186 
	C65.622856,284.356415 65.355797,284.065674 65.088737,283.774902 
	C64.896973,284.303101 64.705208,284.831299 64.513443,285.359497 
	C64.922600,285.301208 65.331757,285.242889 65.889923,284.647186 
M64.836357,278.105560 
	C64.364799,278.231903 63.893242,278.358246 63.421688,278.484589 
	C63.604847,278.847809 63.788006,279.211029 63.971172,279.574249 
	C64.276649,279.264435 64.582123,278.954651 64.836357,278.105560 
M66.644226,210.763214 
	C66.162735,210.835846 65.681236,210.908463 65.199745,210.981094 
	C65.272331,211.404037 65.344925,211.826996 65.417511,212.249939 
	C65.852531,211.943436 66.287552,211.636932 66.644226,210.763214 
M68.802429,299.169495 
	C68.759056,298.741089 68.715683,298.312653 68.672302,297.884247 
	C68.373505,298.120667 67.829048,298.362762 67.834366,298.592133 
	C67.842049,298.923401 68.248360,299.245483 68.802429,299.169495 
M64.755310,223.823502 
	C64.588089,223.879074 64.420868,223.934647 64.253647,223.990219 
	C64.421875,224.044342 64.590111,224.098450 64.755310,223.823502 
z"/>
<path fill="#F8EBEB" opacity="1.000000" stroke="none" 
	d="
M413.858276,354.829041 
	C429.947723,330.475983 439.952423,304.137299 444.567108,275.542145 
	C456.261108,296.517883 394.747742,400.253052 369.062836,402.736359 
	C386.146240,388.701416 401.438690,373.344025 413.858276,354.829041 
z"/>
<path fill="#F8EAEA" opacity="1.000000" stroke="none" 
	d="
M131.271240,100.298843 
	C114.170860,114.521835 98.809059,130.307724 86.689415,149.106552 
	C73.200203,170.029709 64.093552,192.694046 59.036045,217.030502 
	C58.686962,218.710266 58.208416,220.363129 57.500622,221.947189 
	C52.694180,193.126328 92.319038,126.340706 130.308411,99.601372 
	C130.965103,99.930244 131.118164,100.114540 131.271240,100.298843 
z"/>
<path fill="#C65959" opacity="1.000000" stroke="none" 
	d="
M85.936951,345.048218 
	C81.083679,335.443665 76.357407,325.580627 71.631142,315.717560 
	C72.119484,315.488678 72.607826,315.259766 73.096176,315.030884 
	C77.658249,324.468842 82.220322,333.906799 86.845215,343.689972 
	C86.626686,344.286682 86.345329,344.538177 85.936951,345.048218 
z"/>
<path fill="#C65959" opacity="1.000000" stroke="none" 
	d="
M421.065369,166.944000 
	C424.573181,174.650925 427.951080,182.615067 431.328979,190.579224 
	C430.852997,190.784088 430.376984,190.988953 429.900970,191.193832 
	C426.658936,183.689774 423.416901,176.185715 420.137421,168.323410 
	C420.378479,167.710526 420.656982,167.455872 421.065369,166.944000 
z"/>
<path fill="#C24E4E" opacity="1.000000" stroke="none" 
	d="
M423.908325,326.392120 
	C423.908356,326.392120 423.802856,326.179474 423.885590,326.094391 
	C424.922241,326.061523 426.557556,325.831238 426.715942,326.213287 
	C427.545197,328.213684 421.800354,336.493469 419.063782,337.008667 
	C420.006500,334.193085 421.124146,331.656555 422.721375,329.095337 
	C423.436768,328.177795 423.672546,327.284973 423.908325,326.392120 
z"/>
<path fill="#F3DCDC" opacity="1.000000" stroke="none" 
	d="
M430.981903,309.982239 
	C431.487518,307.102142 431.993134,304.222076 432.498749,301.341980 
	C432.855682,301.373749 433.212585,301.405487 433.569519,301.437256 
	C433.841614,302.139526 434.113739,302.841797 434.606262,303.731201 
	C434.285522,305.742554 433.744385,307.566742 432.728027,309.701599 
	C431.842010,310.014893 431.431122,310.017456 431.010986,310.010864 
	C431.001740,310.001648 430.981903,309.982239 430.981903,309.982239 
z"/>
<path fill="#FAF2F2" opacity="1.000000" stroke="none" 
	d="
M68.982071,201.014206 
	C68.566566,202.863861 68.199348,204.728226 67.648796,206.536774 
	C67.602066,206.690292 66.331055,206.471100 65.406975,206.240387 
	C65.280624,205.495636 65.376099,204.935547 65.912590,204.065750 
	C66.312935,203.189545 66.272263,202.623062 66.231590,202.056580 
	C66.350525,201.501099 66.469460,200.945633 66.956154,200.419556 
	C67.876633,200.637375 68.429352,200.825790 68.982071,201.014206 
z"/>
<path fill="#FAF2F2" opacity="1.000000" stroke="none" 
	d="
M102.341431,373.806702 
	C100.284966,371.346008 98.228493,368.885345 96.172028,366.424652 
	C96.672707,365.992401 97.173393,365.560150 97.674072,365.127899 
	C99.471725,367.436798 101.269386,369.745697 102.934616,372.643799 
	C102.648598,373.424225 102.495018,373.615448 102.341431,373.806702 
z"/>
<path fill="#F3DCDC" opacity="1.000000" stroke="none" 
	d="
M429.063965,312.131897 
	C429.480591,311.440063 429.897186,310.748260 430.647858,310.019348 
	C430.981903,309.982239 431.001740,310.001648 431.015747,310.336517 
	C431.313721,311.430878 431.597656,312.190399 431.881592,312.949921 
	C430.665710,314.855347 429.449860,316.760773 428.419617,318.161133 
	C428.758118,315.814697 428.911041,313.973297 429.063965,312.131897 
z"/>
<path fill="#C24E4E" opacity="1.000000" stroke="none" 
	d="
M428.967651,312.462402 
	C428.911041,313.973297 428.758118,315.814697 428.298523,317.827423 
	C427.991821,317.998749 427.576355,318.016388 427.368439,318.016479 
	C427.730804,316.275360 428.301086,314.534149 428.967651,312.462402 
z"/>
<path fill="#F8EAEA" opacity="1.000000" stroke="none" 
	d="
M135.715820,95.008270 
	C137.168030,94.144661 138.308395,93.496696 139.448746,92.848732 
	C139.643158,93.162277 139.837585,93.475822 140.031998,93.789375 
	C138.636261,94.806770 137.240524,95.824173 135.844772,96.841568 
	C135.697830,96.302345 135.550888,95.763130 135.715820,95.008270 
z"/>
<path fill="#F6E4E4" opacity="1.000000" stroke="none" 
	d="
M100.075516,120.449814 
	C100.443321,120.035622 100.736519,119.890625 101.116486,119.453384 
	C101.981728,118.542702 102.721085,117.845146 103.754532,117.061760 
	C102.929092,118.403709 101.809547,119.831505 100.321411,121.376099 
	C99.981895,121.261307 100.010971,121.029709 100.075516,120.449814 
z"/>
<path fill="#F8EAEA" opacity="1.000000" stroke="none" 
	d="
M130.615875,99.444878 
	C131.490387,98.318138 132.561096,97.492470 133.631805,96.666794 
	C133.919281,96.942841 134.206757,97.218880 134.494232,97.494926 
	C133.642471,98.345146 132.790710,99.195366 131.605103,100.172211 
	C131.118164,100.114540 130.965103,99.930244 130.615875,99.444878 
z"/>
<path fill="#F1D7D7" opacity="1.000000" stroke="none" 
	d="
M106.041565,375.919952 
	C106.725357,376.652283 107.409149,377.384644 107.978592,378.655029 
	C107.735069,379.374939 107.605904,379.556824 107.476746,379.738708 
	C106.741318,379.011353 106.005898,378.283997 105.381920,377.150146 
	C105.756134,376.522369 105.938873,376.247803 106.041565,375.919952 
z"/>
<path fill="#C24E4E" opacity="1.000000" stroke="none" 
	d="
M426.893860,319.834076 
	C427.563629,320.327393 428.342041,320.928467 429.120422,321.529541 
	C428.837921,321.818451 428.555450,322.107361 428.272949,322.396301 
	C427.824188,321.743774 427.375427,321.091248 426.840210,320.102783 
	C426.753723,319.766815 427.002441,319.941833 426.893860,319.834076 
z"/>
<path fill="#FFFEFE" opacity="1.000000" stroke="none" 
	d="
M402.540192,132.324387 
	C403.103882,133.092712 403.667542,133.861053 404.231201,134.629379 
	C404.090637,134.821152 403.950043,135.012909 403.809479,135.204681 
	C403.179932,134.818054 402.550385,134.431442 402.009674,133.455444 
	C402.245728,132.685516 402.392944,132.504959 402.540192,132.324387 
z"/>
<path fill="#FAF2F2" opacity="1.000000" stroke="none" 
	d="
M105.936058,375.665558 
	C105.938873,376.247803 105.756134,376.522369 105.271919,376.859680 
	C104.661926,376.589508 104.273369,376.203308 104.038956,375.304016 
	C104.348083,374.610718 104.503067,374.430481 104.658058,374.250244 
	C105.048889,374.637207 105.439713,375.024200 105.936058,375.665558 
z"/>
<path fill="#FFFEFE" opacity="1.000000" stroke="none" 
	d="
M406.493378,139.410049 
	C405.756470,139.044220 405.287231,138.476913 404.953674,137.378326 
	C405.232666,136.651627 405.375977,136.456192 405.519287,136.260773 
	C406.037384,136.897324 406.555450,137.533890 407.166565,138.465714 
	C407.093445,138.910172 406.927246,139.059372 406.493378,139.410049 
z"/>
<path fill="#FFFEFE" opacity="1.000000" stroke="none" 
	d="
M68.993393,201.002335 
	C68.429352,200.825790 67.876633,200.637375 67.151649,200.204498 
	C67.446953,199.649719 67.914520,199.339417 68.702805,199.029312 
	C69.023521,199.029510 69.038467,199.063675 69.018379,199.390244 
	C69.006714,200.132553 69.015129,200.548309 69.023544,200.964050 
	C69.023544,200.964050 69.004723,200.990463 68.993393,201.002335 
z"/>
<path fill="#FFFEFE" opacity="1.000000" stroke="none" 
	d="
M432.006470,312.665100 
	C431.597656,312.190399 431.313721,311.430878 431.025024,310.345703 
	C431.431122,310.017456 431.842010,310.014893 432.561157,310.021729 
	C432.623383,310.814209 432.377350,311.597260 432.006470,312.665100 
z"/>
<path fill="#FFFEFE" opacity="1.000000" stroke="none" 
	d="
M66.117889,202.365112 
	C66.272263,202.623062 66.312935,203.189545 66.124893,203.867432 
	C65.932190,203.543762 65.968193,203.108704 66.117889,202.365112 
z"/>
<path fill="#FAF2F2" opacity="1.000000" stroke="none" 
	d="
M103.056503,372.967102 
	C103.670723,373.068909 104.030640,373.436554 104.524307,374.027222 
	C104.503067,374.430481 104.348083,374.610718 103.941765,375.044067 
	C103.326584,374.946991 102.962730,374.596832 102.470154,374.026703 
	C102.495018,373.615448 102.648598,373.424225 103.056503,372.967102 
z"/>
<path fill="#FFFEFE" opacity="1.000000" stroke="none" 
	d="
M399.366638,130.556442 
	C399.086700,130.108353 398.806732,129.660263 398.526764,129.212173 
	C398.986969,129.253525 399.447174,129.294861 399.830750,129.768494 
	C399.624969,130.319336 399.495819,130.437897 399.366638,130.556442 
z"/>
<path fill="#FFFEFE" opacity="1.000000" stroke="none" 
	d="
M399.954407,130.030396 
	C400.595551,130.231537 401.036407,130.603088 401.374451,131.388641 
	C401.119446,131.930115 400.967224,132.057587 400.814972,132.185043 
	C400.427216,131.801529 400.039429,131.418030 399.509155,130.795471 
	C399.495819,130.437897 399.624969,130.319336 399.954407,130.030396 
z"/>
<path fill="#F1D7D7" opacity="1.000000" stroke="none" 
	d="
M115.536316,386.550873 
	C115.791916,386.846161 116.047516,387.141418 116.155815,387.712982 
	C116.008507,387.989258 115.997238,388.003357 115.997238,388.003357 
	C115.697166,387.854523 115.397102,387.705688 115.167206,387.182526 
	C115.237381,386.808197 115.536316,386.550873 115.536316,386.550873 
z"/>
<path fill="#F1D7D7" opacity="1.000000" stroke="none" 
	d="
M115.085663,386.934204 
	C114.649757,386.893463 114.365578,386.726715 114.165527,386.168488 
	C114.249657,385.776978 114.561111,385.450256 114.561111,385.450256 
	C114.841583,385.634521 115.079910,385.862762 115.406204,386.342957 
	C115.536316,386.550873 115.237381,386.808197 115.085663,386.934204 
z"/>
<path fill="#F1D7D7" opacity="1.000000" stroke="none" 
	d="
M114.082008,385.928040 
	C113.634300,385.908875 113.354240,385.738647 113.163162,385.160858 
	C113.252144,384.753326 113.567261,384.376068 113.567261,384.376068 
	C113.841354,384.563904 114.076973,384.791504 114.417618,385.254578 
	C114.561111,385.450256 114.249657,385.776978 114.082008,385.928040 
z"/>
<path fill="#F1D7D7" opacity="1.000000" stroke="none" 
	d="
M112.468704,383.257202 
	C112.731491,383.489197 112.994278,383.721191 113.412163,384.164612 
	C113.567261,384.376068 113.252144,384.753326 113.075424,384.924164 
	C112.621231,384.922791 112.343750,384.750549 112.142868,384.147827 
	C112.302544,383.563995 112.385628,383.410614 112.468704,383.257202 
z"/>
<path fill="#F1D7D7" opacity="1.000000" stroke="none" 
	d="
M112.048416,383.915405 
	C111.657707,383.765961 111.438049,383.418488 111.218384,383.071014 
	C111.486946,383.001923 111.755508,382.932831 112.246384,383.060486 
	C112.385628,383.410614 112.302544,383.563995 112.048416,383.915405 
z"/>
<path fill="#F1D7D7" opacity="1.000000" stroke="none" 
	d="
M116.017792,387.976746 
	C116.265884,388.041595 116.504700,388.118958 116.743515,388.196350 
	C116.544769,388.284027 116.346024,388.371704 116.072266,388.231384 
	C115.997238,388.003357 116.008507,387.989258 116.017792,387.976746 
z"/>
<path fill="#F1D7D7" opacity="1.000000" stroke="none" 
	d="
M110.211571,380.786743 
	C110.400528,381.228668 110.589478,381.670593 110.778435,382.112518 
	C110.414764,382.094940 110.051086,382.077362 109.705391,381.625702 
	C109.886101,381.056671 110.048836,380.921722 110.211571,380.786743 
z"/>
<path fill="#F1D7D7" opacity="1.000000" stroke="none" 
	d="
M109.246796,379.753235 
	C109.583450,379.841095 109.844627,380.032166 110.120941,380.556580 
	C110.048836,380.921722 109.886101,381.056671 109.447342,381.353516 
	C108.916397,381.330597 108.675468,381.129059 108.604195,380.536560 
	C108.922173,380.025970 109.084480,379.889618 109.246796,379.753235 
z"/>
<path fill="#F1D7D7" opacity="1.000000" stroke="none" 
	d="
M108.085251,378.941803 
	C108.636253,378.794983 108.889214,378.996216 109.155975,379.523743 
	C109.084480,379.889618 108.922173,380.025970 108.486237,380.330048 
	C108.016220,380.362793 107.841545,380.204010 107.582657,379.880005 
	C107.605904,379.556824 107.735069,379.374939 108.085251,378.941803 
z"/>
<path fill="#C24E4E" opacity="1.000000" stroke="none" 
	d="
M418.536011,343.551941 
	C418.475891,343.589203 418.596100,343.514709 418.536011,343.551941 
z"/>
<path fill="#F6E4E4" opacity="1.000000" stroke="none" 
	d="
M106.385582,115.211807 
	C106.150421,114.699966 106.295135,114.346626 106.744904,114.007004 
	C106.955124,114.470581 106.860291,114.920441 106.385582,115.211807 
z"/>
<path fill="#F6E4E4" opacity="1.000000" stroke="none" 
	d="
M105.377655,116.212456 
	C105.150795,115.717743 105.309143,115.381874 105.760330,115.025238 
	C105.956398,115.460083 105.859634,115.915695 105.377655,116.212456 
z"/>
<path fill="#F6E4E4" opacity="1.000000" stroke="none" 
	d="
M104.368484,117.212433 
	C104.148041,116.725563 104.317009,116.399544 104.769699,116.032448 
	C104.954918,116.452011 104.856407,116.912643 104.368484,117.212433 
z"/>
<path fill="#FFFEFE" opacity="1.000000" stroke="none" 
	d="
M401.861908,133.123260 
	C401.392487,133.146561 401.159668,132.912674 400.870911,132.431915 
	C400.967224,132.057587 401.119446,131.930115 401.524536,131.642807 
	C401.989624,131.627701 402.175140,131.801056 402.437042,132.163696 
	C402.392944,132.504959 402.245728,132.685516 401.861908,133.123260 
z"/>
<path fill="#FFFEFE" opacity="1.000000" stroke="none" 
	d="
M404.847656,137.118576 
	C404.742401,136.849503 404.878876,136.308899 405.267303,136.014542 
	C405.375977,136.456192 405.232666,136.651627 404.847656,137.118576 
z"/>
<path fill="#BB3A3A" opacity="1.000000" stroke="none" 
	d="
M224.664032,192.986816 
	C223.283112,192.043930 222.315979,191.160828 220.397003,189.408554 
	C235.118378,189.408554 248.249969,188.725967 261.268494,189.645157 
	C270.155365,190.272629 275.162659,195.984970 275.899750,202.971283 
	C276.731110,210.850800 272.553436,217.000595 263.978394,220.524002 
	C262.798584,221.008804 261.622375,221.502472 260.026001,222.166016 
	C263.726227,223.489639 267.042969,224.331985 270.046112,225.811066 
	C281.840240,231.619736 283.686371,247.159103 273.169037,255.067230 
	C269.356079,257.934265 264.249512,260.312805 259.594421,260.590820 
	C246.998749,261.343048 234.328598,260.848511 221.688004,260.848511 
	C221.405807,260.434570 221.123627,260.020599 220.841446,259.606659 
	C221.974716,258.739807 223.045197,257.235504 224.252136,257.116608 
	C229.442947,256.605347 231.266571,254.048386 231.183838,248.852783 
	C230.934418,233.191559 230.974136,217.522385 231.166885,201.859558 
	C231.224411,197.184570 229.834396,194.105682 224.664032,192.986816 
M263.803223,229.769562 
	C257.585693,223.611908 249.910248,224.934219 242.008774,225.185822 
	C242.008774,233.199158 241.982483,240.811157 242.017395,248.422867 
	C242.043442,254.102066 243.927872,256.332886 249.525238,256.821869 
	C255.591644,257.351837 261.554474,256.497894 264.712738,250.610703 
	C268.258759,244.000656 268.831879,237.012054 263.803223,229.769562 
M254.637131,193.384018 
	C250.557571,193.384018 246.478012,193.384018 242.385376,193.384018 
	C242.385376,202.641190 242.385376,211.651810 242.385376,221.188950 
	C246.573959,220.780380 250.414276,220.752167 254.093811,219.968765 
	C260.195435,218.669724 263.378296,213.978973 263.763275,206.623230 
	C264.118713,199.832596 261.645874,195.982895 254.637131,193.384018 
z"/>
<path fill="#BA3939" opacity="1.000000" stroke="none" 
	d="
M176.842178,227.830078 
	C184.720169,216.308578 192.400955,205.089096 200.319550,193.522247 
	C191.906479,193.522247 183.978027,192.893555 176.201630,193.711105 
	C169.357574,194.430618 166.796143,200.964539 163.321396,205.983948 
	C162.349762,207.387527 160.849152,208.424942 159.591187,209.630325 
	C159.180084,209.306198 158.768967,208.982071 158.357864,208.657928 
	C159.022949,202.277451 159.688049,195.896973 160.383026,189.229675 
	C178.491745,189.229675 196.344864,189.229675 215.450150,189.229675 
	C199.893265,211.979355 184.847214,233.982025 168.766418,257.497864 
	C179.612839,256.871460 189.240036,257.146210 198.526810,255.500229 
	C205.219055,254.314117 207.310654,246.992844 210.761505,241.778717 
	C211.692810,240.371567 213.152893,239.314392 214.370239,238.096573 
	C214.788391,238.441757 215.206528,238.786942 215.624680,239.132126 
	C214.864044,246.339722 214.103409,253.547318 213.342377,260.758698 
	C193.790207,260.758698 174.708267,260.758698 154.371338,260.758698 
	C162.132507,249.390060 169.388748,238.761078 176.842178,227.830078 
z"/>
<path fill="#BB3B3B" opacity="1.000000" stroke="none" 
	d="
M295.149292,261.012268 
	C293.189056,261.012268 291.710938,261.012268 290.232788,261.012268 
	C289.961670,260.543884 289.690552,260.075470 289.419434,259.607086 
	C290.569366,258.733002 291.650635,257.231171 292.881409,257.096588 
	C297.522675,256.589020 299.463165,254.502670 299.400330,249.645889 
	C299.189331,233.336700 299.213928,217.021957 299.387512,200.711868 
	C299.440155,195.766144 297.560181,193.314636 292.604401,192.837189 
	C291.278412,192.709457 290.073669,191.323242 288.813232,190.514786 
	C289.059998,190.083176 289.306732,189.651566 289.553467,189.219955 
	C302.334412,189.219955 315.149750,188.647858 327.884613,189.413910 
	C336.912292,189.956970 343.210968,196.145233 344.696594,203.463394 
	C346.373901,211.725922 342.493042,220.683441 334.522491,224.992203 
	C330.689301,227.064346 326.195251,228.188614 321.861298,228.973694 
	C318.340210,229.611542 314.611542,229.103256 310.443420,229.103256 
	C310.443420,237.363571 310.208954,245.110840 310.546295,252.833145 
	C310.705322,256.473480 314.168488,256.480194 316.961517,257.080444 
	C318.457428,257.401917 319.785400,258.504700 321.189178,259.254913 
	C320.958801,259.840698 320.728424,260.426483 320.498047,261.012268 
	C312.209167,261.012268 303.920258,261.012268 295.149292,261.012268 
M310.184937,197.711273 
	C310.184937,206.632111 310.184937,215.552933 310.184937,224.380127 
	C325.154419,226.507080 332.918121,220.052841 332.094177,206.725693 
	C331.477509,196.750427 325.760712,192.622467 313.638916,192.943329 
	C310.631927,193.022919 309.836884,194.134323 310.184937,197.711273 
z"/>
<path fill="#BD4040" opacity="1.000000" stroke="none" 
	d="
M185.757782,336.996155 
	C180.889450,338.861053 177.449860,337.870667 175.938889,332.163940 
	C177.646576,332.939423 179.341019,334.278076 181.065979,334.318604 
	C182.542923,334.353333 184.054825,332.900757 185.233627,331.561829 
	C178.140854,331.404053 174.875244,329.323273 175.017075,324.670715 
	C175.167603,319.733429 178.279190,318.498444 189.483414,319.227448 
	C188.453781,325.144714 192.074524,331.723511 185.757782,336.996155 
M184.906586,323.744934 
	C183.559097,323.294250 182.211609,322.843567 180.864136,322.392853 
	C180.519913,323.556213 179.768036,324.795471 179.965866,325.857910 
	C180.113037,326.648285 182.053757,327.902008 182.228195,327.760101 
	C183.324036,326.868683 184.148697,325.643951 184.906586,323.744934 
z"/>
<path fill="#BD4040" opacity="1.000000" stroke="none" 
	d="
M271.217163,311.957581 
	C275.397186,311.910004 278.485077,312.831390 279.356476,318.035431 
	C275.964172,317.129852 273.042419,316.349884 270.120636,315.569946 
	C269.892883,316.211823 269.665131,316.853729 269.437378,317.495636 
	C270.720856,318.153778 271.944366,318.999878 273.299805,319.432465 
	C276.489594,320.450470 280.443665,321.131378 279.840942,325.426697 
	C279.555695,327.459717 277.204315,330.095428 275.204315,330.801300 
	C271.536926,332.095673 267.577026,331.652527 265.116364,327.758331 
	C264.703094,327.104279 264.620941,326.241028 264.416199,325.573608 
	C268.329224,322.117767 271.661011,332.220093 276.082855,325.287567 
	C274.057220,324.445801 272.124146,324.018463 270.665131,322.946075 
	C268.593964,321.423767 265.730133,319.682465 265.257904,317.574738 
	C264.475800,314.084137 267.598145,312.557373 271.217163,311.957581 
z"/>
<path fill="#BC3E3E" opacity="1.000000" stroke="none" 
	d="
M232.423248,331.003113 
	C227.011673,330.792725 224.585815,328.515594 224.890961,324.341461 
	C225.196091,320.167542 227.951965,318.406219 233.081436,318.934357 
	C234.845505,319.115997 236.644012,318.963226 238.992920,318.963226 
	C238.992920,323.406036 239.671402,327.976807 238.718796,332.177673 
	C238.210098,334.420990 235.174225,336.932770 232.762817,337.698853 
	C229.437149,338.755402 226.495560,336.866089 225.635498,332.227966 
	C227.207245,332.885956 228.803024,333.492523 230.345551,334.213074 
	C233.207642,335.550049 234.268051,333.913391 234.926682,331.536926 
	C234.218735,331.341492 233.510788,331.146057 232.423248,331.003113 
M232.447128,321.966644 
	C229.601852,322.210480 228.379745,323.740021 229.814285,326.269928 
	C230.278946,327.089417 232.677322,327.776703 233.403214,327.306976 
	C235.789200,325.762817 235.470963,323.787170 232.447128,321.966644 
z"/>
<path fill="#C04A4A" opacity="1.000000" stroke="none" 
	d="
M242.935242,321.285278 
	C244.897446,320.134521 246.582443,318.864868 248.415314,318.593353 
	C251.968689,318.066895 255.579086,320.926422 255.673279,323.839447 
	C255.819733,328.368073 253.364014,331.091431 249.055298,331.178650 
	C244.648773,331.267883 241.804031,328.857361 241.845856,324.881073 
	C241.857330,323.790192 242.416824,322.705078 242.935242,321.285278 
z"/>
<path fill="#C04949" opacity="1.000000" stroke="none" 
	d="
M355.760315,319.240784 
	C359.807831,321.493744 359.630981,324.975494 358.018311,327.791229 
	C357.044342,329.491760 354.209259,330.805054 352.081787,331.020172 
	C348.073700,331.425507 345.303406,329.084534 345.215759,324.941742 
	C345.132812,321.019073 347.777466,319.009583 351.528442,318.635803 
	C352.799957,318.509094 354.123993,318.908997 355.760315,319.240784 
z"/>
<path fill="#C04A4A" opacity="1.000000" stroke="none" 
	d="
M281.995728,325.794678 
	C281.871094,321.921478 283.603058,319.743835 286.881378,318.882874 
	C290.205048,318.009979 293.788086,318.409241 294.912476,321.799042 
	C295.661560,324.057312 295.026215,328.552002 293.538910,329.369934 
	C291.140533,330.688934 287.489563,330.088531 284.452362,329.675903 
	C283.504364,329.547150 282.829437,327.408051 281.995728,325.794678 
z"/>
<path fill="#BC3D3D" opacity="1.000000" stroke="none" 
	d="
M149.417130,331.084473 
	C144.327621,330.997925 142.384857,328.331421 142.723297,323.996338 
	C143.033310,320.025482 145.862671,318.427979 150.729416,318.908997 
	C152.634811,319.097351 154.574371,318.939850 156.733978,318.939850 
	C156.733978,323.033295 156.733978,326.776428 156.733978,331.043488 
	C154.309097,331.043488 152.084061,331.043488 149.417130,331.084473 
M148.102371,322.548584 
	C146.236282,324.695587 146.565079,326.677094 149.122528,327.628967 
	C149.909714,327.921906 152.151047,326.591614 152.379700,325.670319 
	C153.046646,322.983063 151.576813,321.668488 148.102371,322.548584 
z"/>
<path fill="#BC3D3D" opacity="1.000000" stroke="none" 
	d="
M221.969467,322.165100 
	C221.970337,325.258972 221.970337,327.879730 221.970337,330.665466 
	C218.851700,330.835083 215.891327,331.713135 213.484100,330.917572 
	C211.249496,330.179047 208.356277,327.849243 208.045654,325.861786 
	C207.722534,323.794250 209.636429,320.024902 211.485931,319.285522 
	C214.290131,318.164459 217.889069,318.942932 221.135300,319.150513 
	C221.465897,319.171631 221.693298,320.806152 221.969467,322.165100 
M212.588470,326.686584 
	C214.006912,326.750763 215.492874,327.073029 216.804688,326.729706 
	C217.225494,326.619568 217.678497,324.413635 217.237015,323.769531 
	C216.638397,322.896179 215.193283,322.603058 214.111267,322.061035 
	C213.470337,323.386261 212.829391,324.711456 212.588470,326.686584 
z"/>
<path fill="#BF4646" opacity="1.000000" stroke="none" 
	d="
M372.015533,321.992737 
	C371.653870,322.801514 371.497009,323.548157 371.640656,324.231628 
	C371.982330,325.857788 372.466125,327.454102 372.892487,329.062469 
	C370.317322,329.718475 367.741943,330.840515 365.167053,330.839417 
	C363.823334,330.838867 362.281647,329.014801 361.254669,327.685791 
	C360.934113,327.270935 362.004700,325.781097 363.192261,325.991882 
	C362.684692,324.357330 361.265900,321.973663 361.863068,321.247192 
	C363.034698,319.821899 365.398468,318.508331 367.139099,318.658020 
	C368.957947,318.814453 370.624115,320.746216 372.015533,321.992737 
z"/>
<path fill="#BF4646" opacity="1.000000" stroke="none" 
	d="
M160.102264,320.329590 
	C169.355728,316.214111 173.342010,318.714478 172.849136,327.842041 
	C172.689301,330.801849 172.689301,330.801849 168.707397,330.694977 
	C168.439545,327.868774 168.168915,325.013245 167.898285,322.157715 
	C167.260239,322.041138 166.622192,321.924561 165.984146,321.807953 
	C165.447830,323.830322 164.486893,325.849701 164.472778,327.875702 
	C164.450500,331.072235 163.122025,331.573456 160.061996,330.540619 
	C160.061996,327.371765 160.061996,324.079559 160.102264,320.329590 
z"/>
<path fill="#C25050" opacity="1.000000" stroke="none" 
	d="
M133.104401,331.063477 
	C131.506851,330.127991 129.443146,329.253357 129.376907,328.247253 
	C129.040527,323.136475 129.221878,317.991669 129.221878,312.843719 
	C132.674637,311.087433 133.922195,312.132599 133.808426,315.625092 
	C133.690552,319.243134 133.782196,322.868011 133.782196,325.966217 
	C135.773666,328.340271 141.299210,324.787445 140.129868,331.063721 
	C137.807419,331.063721 135.683441,331.063721 133.104401,331.063477 
z"/>
<path fill="#BF4646" opacity="1.000000" stroke="none" 
	d="
M201.289917,319.245697 
	C203.769287,318.516724 205.170181,318.870728 205.028183,321.578705 
	C204.873367,324.531372 204.992996,327.498444 204.992996,331.610535 
	C200.718811,330.756287 196.306671,330.922852 193.441498,328.899200 
	C191.786453,327.730255 192.479462,323.026062 192.512299,319.917175 
	C192.516937,319.477295 194.777588,319.061249 196.208771,318.558807 
	C196.656830,322.119415 197.010544,324.930237 197.409058,328.097076 
	C202.211044,326.038574 200.145264,322.292175 201.289917,319.245697 
z"/>
<path fill="#BF4848" opacity="1.000000" stroke="none" 
	d="
M330.002014,325.019287 
	C330.428589,320.669067 332.891418,318.582977 336.606720,318.538239 
	C339.564087,318.502625 342.556854,319.303894 343.190674,324.077667 
	C341.426697,323.560944 340.195831,323.087891 338.921143,322.860413 
	C337.778046,322.656403 335.709961,322.381866 335.574371,322.730743 
	C335.087891,323.982788 334.931244,325.585602 335.327118,326.842560 
	C335.474640,327.310883 337.509491,327.412781 338.638611,327.284515 
	C339.958466,327.134644 341.229004,326.550720 343.131195,325.968262 
	C342.303833,330.317535 339.798309,331.126587 336.845367,331.167908 
	C332.963043,331.222290 330.627106,329.304260 330.002014,325.019287 
z"/>
<path fill="#BD4040" opacity="1.000000" stroke="none" 
	d="
M306.994751,319.111328 
	C313.502228,316.933136 311.881683,323.696259 314.280273,325.864227 
	C316.964813,324.078186 314.745697,317.866516 321.237061,319.115265 
	C319.989929,322.538361 319.008423,325.801025 317.573059,328.850006 
	C317.098907,329.857239 315.448212,330.875214 314.345795,330.864105 
	C313.229858,330.852844 311.723816,329.820190 311.100555,328.799988 
	C309.744781,326.580750 308.842102,324.084717 307.362579,321.312744 
	C306.978851,320.319550 306.986816,319.715424 306.994751,319.111328 
z"/>
<path fill="#BB3A3A" opacity="1.000000" stroke="none" 
	d="
M306.559265,318.927185 
	C306.986816,319.715424 306.978851,320.319550 306.981171,321.225525 
	C300.962646,322.221588 303.693573,327.266998 302.663452,330.393402 
	C298.186981,330.966003 298.048157,330.540649 299.068054,319.185242 
	C301.377655,319.040497 303.750702,318.891754 306.559265,318.927185 
z"/>
<path fill="#BA3838" opacity="1.000000" stroke="none" 
	d="
M323.025085,324.978271 
	C323.025085,322.882996 323.025085,321.253204 323.025085,319.674225 
	C327.678986,318.639404 328.003937,319.641113 326.767212,330.471069 
	C323.048157,330.807526 323.048157,330.807526 323.025085,324.978271 
z"/>
<path fill="#F3DCDC" opacity="1.000000" stroke="none" 
	d="
M62.989407,253.013321 
	C62.989407,258.805420 62.989407,264.597534 62.989407,270.389618 
	C62.661911,270.395111 62.334419,270.400604 62.006924,270.406097 
	C62.006924,264.918701 62.006924,259.431305 62.253235,253.472565 
	C62.499542,253.001251 62.989407,253.013321 62.989407,253.013321 
z"/>
<path fill="#FAF2F2" opacity="1.000000" stroke="none" 
	d="
M71.882309,311.080109 
	C70.890633,309.734955 69.898949,308.389832 68.907272,307.044678 
	C69.423943,306.771240 69.940620,306.497803 70.457291,306.224335 
	C70.985970,307.558716 71.514641,308.893066 72.011765,310.620728 
	C71.980217,311.014008 71.882309,311.080109 71.882309,311.080109 
z"/>
<path fill="#FAF2F2" opacity="1.000000" stroke="none" 
	d="
M62.995705,252.609924 
	C62.989407,253.013321 62.499542,253.001251 62.254684,253.005188 
	C61.828323,251.484589 61.646816,249.960068 61.836800,248.431030 
	C62.402966,248.703262 62.662937,248.888245 62.988197,248.981445 
	C62.992798,250.056473 62.997398,251.131500 62.995705,252.609924 
z"/>
<path fill="#FAF2F2" opacity="1.000000" stroke="none" 
	d="
M69.685287,301.886047 
	C69.579063,302.589386 69.295609,303.078613 69.012161,303.567810 
	C68.797684,303.372650 68.380005,303.030273 68.398903,303.004211 
	C68.737167,302.537323 69.128273,302.108734 69.685287,301.886047 
z"/>
<path fill="#FAF2F2" opacity="1.000000" stroke="none" 
	d="
M66.573158,295.413025 
	C66.666626,294.725677 66.965179,294.222900 67.263733,293.720123 
	C67.462952,293.919281 67.860687,294.252777 67.830795,294.296936 
	C67.519409,294.757202 67.139290,295.170959 66.573158,295.413025 
z"/>
<path fill="#FAF2F2" opacity="1.000000" stroke="none" 
	d="
M65.815414,284.915894 
	C65.331757,285.242889 64.922600,285.301208 64.513443,285.359497 
	C64.705208,284.831299 64.896973,284.303101 65.088737,283.774902 
	C65.355797,284.065674 65.622856,284.356415 65.815414,284.915894 
z"/>
<path fill="#FAF2F2" opacity="1.000000" stroke="none" 
	d="
M64.861984,278.375183 
	C64.582123,278.954651 64.276649,279.264435 63.971169,279.574249 
	C63.788006,279.211029 63.604847,278.847809 63.421684,278.484589 
	C63.893242,278.358246 64.364799,278.231903 64.861984,278.375183 
z"/>
<path fill="#F3DCDC" opacity="1.000000" stroke="none" 
	d="
M62.989250,248.612732 
	C62.662937,248.888245 62.402966,248.703262 62.097195,248.209717 
	C62.090633,246.961411 62.195168,245.929871 62.299706,244.898346 
	C62.529903,244.910431 62.760101,244.922516 62.990299,244.934601 
	C62.990299,246.037735 62.990299,247.140884 62.989250,248.612732 
z"/>
<path fill="#FAF2F2" opacity="1.000000" stroke="none" 
	d="
M72.028763,310.980408 
	C72.213455,311.783875 72.349594,312.621002 72.485733,313.458099 
	C72.188271,313.444458 71.890816,313.430786 71.593353,313.417145 
	C71.627411,312.822845 71.661461,312.228516 71.788910,311.357178 
	C71.882309,311.080109 71.980217,311.014008 72.028763,310.980408 
z"/>
<path fill="#FAF2F2" opacity="1.000000" stroke="none" 
	d="
M66.683395,211.046814 
	C66.287552,211.636932 65.852531,211.943436 65.417511,212.249939 
	C65.344925,211.826996 65.272331,211.404037 65.199745,210.981094 
	C65.681236,210.908463 66.162735,210.835846 66.683395,211.046814 
z"/>
<path fill="#FAF2F2" opacity="1.000000" stroke="none" 
	d="
M68.643509,299.370483 
	C68.248360,299.245483 67.842049,298.923401 67.834366,298.592133 
	C67.829048,298.362762 68.373505,298.120667 68.672302,297.884247 
	C68.715683,298.312653 68.759056,298.741089 68.643509,299.370483 
z"/>
<path fill="#BC3F3F" opacity="1.000000" stroke="none" 
	d="
M423.644775,326.592804 
	C423.672546,327.284973 423.436768,328.177795 422.987579,328.865723 
	C422.976532,328.038330 423.178894,327.415924 423.644775,326.592804 
z"/>
<path fill="#FAF2F2" opacity="1.000000" stroke="none" 
	d="
M64.756828,223.988037 
	C64.590111,224.098450 64.421875,224.044342 64.253647,223.990219 
	C64.420868,223.934647 64.588089,223.879074 64.756828,223.988037 
z"/>
<path fill="#FAF2F2" opacity="1.000000" stroke="none" 
	d="
M69.258331,200.843781 
	C69.015129,200.548309 69.006714,200.132553 69.027283,199.406662 
	C69.201889,199.638855 69.347504,200.181183 69.258331,200.843781 
z"/>
<path fill="#FEFDFD" opacity="1.000000" stroke="none" 
	d="
M264.044312,230.062943 
	C268.831879,237.012054 268.258759,244.000656 264.712738,250.610703 
	C261.554474,256.497894 255.591644,257.351837 249.525238,256.821869 
	C243.927872,256.332886 242.043442,254.102066 242.017395,248.422867 
	C241.982483,240.811157 242.008774,233.199158 242.008774,225.185822 
	C249.910248,224.934219 257.585693,223.611908 264.044312,230.062943 
z"/>
<path fill="#FEFCFC" opacity="1.000000" stroke="none" 
	d="
M255.032623,193.515594 
	C261.645874,195.982895 264.118713,199.832596 263.763275,206.623230 
	C263.378296,213.978973 260.195435,218.669724 254.093811,219.968765 
	C250.414276,220.752167 246.573959,220.780380 242.385376,221.188950 
	C242.385376,211.651810 242.385376,202.641190 242.385376,193.384018 
	C246.478012,193.384018 250.557571,193.384018 255.032623,193.515594 
z"/>
<path fill="#FDFAFA" opacity="1.000000" stroke="none" 
	d="
M310.185181,197.239319 
	C309.836884,194.134323 310.631927,193.022919 313.638916,192.943329 
	C325.760712,192.622467 331.477509,196.750427 332.094177,206.725693 
	C332.918121,220.052841 325.154419,226.507080 310.184937,224.380127 
	C310.184937,215.552933 310.184937,206.632111 310.185181,197.239319 
z"/>
<path fill="#FAF2F2" opacity="1.000000" stroke="none" 
	d="
M184.984818,324.137207 
	C184.148697,325.643951 183.324036,326.868683 182.228195,327.760101 
	C182.053757,327.902008 180.113037,326.648285 179.965866,325.857910 
	C179.768036,324.795471 180.519913,323.556213 180.864136,322.392853 
	C182.211609,322.843567 183.559097,323.294250 184.984818,324.137207 
z"/>
<path fill="#F8EAEA" opacity="1.000000" stroke="none" 
	d="
M232.823242,322.053223 
	C235.470963,323.787170 235.789200,325.762817 233.403214,327.306976 
	C232.677322,327.776703 230.278946,327.089417 229.814285,326.269928 
	C228.379745,323.740021 229.601852,322.210480 232.823242,322.053223 
z"/>
<path fill="#F8EAEA" opacity="1.000000" stroke="none" 
	d="
M148.426163,322.343750 
	C151.576813,321.668488 153.046646,322.983063 152.379700,325.670319 
	C152.151047,326.591614 149.909714,327.921906 149.122528,327.628967 
	C146.565079,326.677094 146.236282,324.695587 148.426163,322.343750 
z"/>
<path fill="#F8EAEA" opacity="1.000000" stroke="none" 
	d="
M212.388458,326.361633 
	C212.829391,324.711456 213.470337,323.386261 214.111267,322.061035 
	C215.193283,322.603058 216.638397,322.896179 217.237015,323.769531 
	C217.678497,324.413635 217.225494,326.619568 216.804688,326.729706 
	C215.492874,327.073029 214.006912,326.750763 212.388458,326.361633 
z"/>
</svg>