<?xml version="1.0" encoding="UTF-8"?>
<svg version="1.1" xmlns="http://www.w3.org/2000/svg" width="500" height="500">
<path d="M0 0 C165 0 330 0 500 0 C500 165 500 330 500 500 C335 500 170 500 0 500 C0 335 0 170 0 0 Z " fill="#FEFEFE" transform="translate(0,0)"/>
<path d="M0 0 C2.90476696 0.00314238 5.80849411 -0.02031955 8.71313477 -0.0456543 C26.53232876 -0.105455 43.91264655 1.63851535 60.87133789 7.31567383 C61.98992187 7.67918945 61.98992187 7.67918945 63.13110352 8.05004883 C95.40147123 18.57467715 121.90217145 35.30765947 145.87133789 59.31567383 C146.54293945 59.94086914 147.21454102 60.56606445 147.90649414 61.21020508 C182.24467612 93.69584545 203.70378816 147.90438856 205.09790039 194.55786133 C205.37142671 209.68859042 204.35735465 224.39137758 201.87133789 239.31567383 C201.74275391 240.10699707 201.61416992 240.89832031 201.48168945 241.71362305 C198.15943204 261.22871524 190.32490432 280.00859377 180.87133789 297.31567383 C180.55342285 297.90993164 180.23550781 298.50418945 179.90795898 299.11645508 C172.68003482 312.5821768 164.11795419 324.38870027 153.59008789 335.44848633 C150.5588571 338.64521535 147.6983465 341.9389691 144.87133789 345.31567383 C144.21133789 344.98567383 143.55133789 344.65567383 142.87133789 344.31567383 C146.50133789 340.35567383 150.13133789 336.39567383 153.87133789 332.31567383 C150.05435689 335.36925863 146.95358474 338.24479393 143.62133789 341.75317383 C114.6084296 371.32032303 74.33576171 388.48485103 33.87133789 394.31567383 C32.7235083 394.48365479 32.7235083 394.48365479 31.55249023 394.6550293 C23.31744291 395.66395298 14.98231936 395.53790639 6.69848633 395.5559082 C4.0370247 395.56552679 1.37636636 395.59658595 -1.28491211 395.62817383 C-19.42146612 395.7401473 -36.59895898 392.78892709 -54.12866211 388.31567383 C-50.67193331 389.27985717 -47.21300424 390.23591316 -43.75366211 391.19067383 C-42.30540039 391.59479492 -42.30540039 391.59479492 -40.82788086 392.00708008 C-14.63457816 399.21463317 13.12341635 400.89119754 39.89477539 395.97192383 C43.25530067 395.35946929 46.44707333 395.18522565 49.87133789 395.31567383 C39.14873659 402.4640747 20.66992998 400.78894531 8.25561523 400.70678711 C5.37313555 400.69068387 2.49205725 400.70675404 -0.39038086 400.72583008 C-15.83214541 400.74368069 -30.90086119 399.14943104 -45.81616211 395.00317383 C-46.59540039 394.79080078 -47.37463867 394.57842773 -48.17749023 394.35961914 C-80.2956986 385.35659003 -108.11812206 368.27661724 -132.12866211 345.31567383 C-133.05549805 344.44168945 -133.98233398 343.56770508 -134.93725586 342.66723633 C-157.74811109 320.60056502 -172.73510655 292.61108485 -184.12866211 263.31567383 C-184.40581055 262.61909668 -184.68295898 261.92251953 -184.96850586 261.20483398 C-202.41327062 216.82676687 -198.30554782 162.70568816 -179.54272461 119.60473633 C-169.09657044 96.39577478 -155.51293251 76.00909482 -137.12866211 58.31567383 C-137.12866211 61.31567383 -137.12866211 61.31567383 -138.48413086 62.89379883 C-139.39098633 63.72137695 -139.39098633 63.72137695 -140.31616211 64.56567383 C-143.85707697 67.80572664 -146.405026 71.3831008 -149.12866211 75.31567383 C-148.54749634 74.6890686 -148.54749634 74.6890686 -147.95458984 74.04980469 C-146.1598283 72.1163073 -144.36300631 70.18473583 -142.56616211 68.25317383 C-141.95708008 67.59639648 -141.34799805 66.93961914 -140.72045898 66.26293945 C-134.6733211 59.76786543 -128.65500776 53.4485917 -121.62866211 48.00317383 C-121.03118164 47.53806396 -120.43370117 47.0729541 -119.81811523 46.59375 C-99.02045773 30.6140722 -76.56523191 18.72125864 -51.20654297 11.89648438 C-48.85271109 11.23853983 -46.52481088 10.51058282 -44.19116211 9.78442383 C-8.7638568 -0.82998282 35.11227189 3.35803545 69.87133789 14.31567383 C69.33355713 14.14962646 68.79577637 13.9835791 68.24169922 13.8125 C31.78379741 2.59857373 -4.22845506 -1.46105753 -41.73339844 7.08227539 C-42.51481201 7.25597656 -43.29622559 7.42967773 -44.10131836 7.60864258 C-44.78460205 7.76872803 -45.46788574 7.92881348 -46.171875 8.09375 C-48.39748965 8.34616219 -50.00357478 7.97714843 -52.12866211 7.31567383 C-49.25628177 6.51336717 -46.38126115 5.72387357 -43.50366211 4.94067383 C-42.71475586 4.71895508 -41.92584961 4.49723633 -41.11303711 4.26879883 C-27.42975652 0.57648502 -14.08570723 -0.03171663 0 0 Z " fill="#FEFEFE" transform="translate(245.128662109375,49.684326171875)"/>
<path d="M0 0 C2.90476696 0.00314238 5.80849411 -0.02031955 8.71313477 -0.0456543 C26.53232876 -0.105455 43.91264655 1.63851535 60.87133789 7.31567383 C61.98992187 7.67918945 61.98992187 7.67918945 63.13110352 8.05004883 C95.40147123 18.57467715 121.90217145 35.30765947 145.87133789 59.31567383 C146.54293945 59.94086914 147.21454102 60.56606445 147.90649414 61.21020508 C182.24467612 93.69584545 203.70378816 147.90438856 205.09790039 194.55786133 C205.37142671 209.68859042 204.35735465 224.39137758 201.87133789 239.31567383 C201.74275391 240.10699707 201.61416992 240.89832031 201.48168945 241.71362305 C198.15943204 261.22871524 190.32490432 280.00859377 180.87133789 297.31567383 C180.55342285 297.90993164 180.23550781 298.50418945 179.90795898 299.11645508 C172.68003482 312.5821768 164.11795419 324.38870027 153.59008789 335.44848633 C150.5588571 338.64521535 147.6983465 341.9389691 144.87133789 345.31567383 C144.21133789 344.98567383 143.55133789 344.65567383 142.87133789 344.31567383 C146.50133789 340.35567383 150.13133789 336.39567383 153.87133789 332.31567383 C150.05435689 335.36925863 146.95358474 338.24479393 143.62133789 341.75317383 C114.6084296 371.32032303 74.33576171 388.48485103 33.87133789 394.31567383 C32.7235083 394.48365479 32.7235083 394.48365479 31.55249023 394.6550293 C23.31744291 395.66395298 14.98231936 395.53790639 6.69848633 395.5559082 C4.0370247 395.56552679 1.37636636 395.59658595 -1.28491211 395.62817383 C-19.42146612 395.7401473 -36.59895898 392.78892709 -54.12866211 388.31567383 C-50.67193331 389.27985717 -47.21300424 390.23591316 -43.75366211 391.19067383 C-42.30540039 391.59479492 -42.30540039 391.59479492 -40.82788086 392.00708008 C-14.63457816 399.21463317 13.12341635 400.89119754 39.89477539 395.97192383 C43.25530067 395.35946929 46.44707333 395.18522565 49.87133789 395.31567383 C39.14873659 402.4640747 20.66992998 400.78894531 8.25561523 400.70678711 C5.37313555 400.69068387 2.49205725 400.70675404 -0.39038086 400.72583008 C-15.83214541 400.74368069 -30.90086119 399.14943104 -45.81616211 395.00317383 C-46.59540039 394.79080078 -47.37463867 394.57842773 -48.17749023 394.35961914 C-80.2956986 385.35659003 -108.11812206 368.27661724 -132.12866211 345.31567383 C-133.05549805 344.44168945 -133.98233398 343.56770508 -134.93725586 342.66723633 C-157.74811109 320.60056502 -172.73510655 292.61108485 -184.12866211 263.31567383 C-184.40581055 262.61909668 -184.68295898 261.92251953 -184.96850586 261.20483398 C-202.41327062 216.82676687 -198.30554782 162.70568816 -179.54272461 119.60473633 C-169.09657044 96.39577478 -155.51293251 76.00909482 -137.12866211 58.31567383 C-137.12866211 61.31567383 -137.12866211 61.31567383 -138.48413086 62.89379883 C-139.39098633 63.72137695 -139.39098633 63.72137695 -140.31616211 64.56567383 C-143.85707697 67.80572664 -146.405026 71.3831008 -149.12866211 75.31567383 C-148.54749634 74.6890686 -148.54749634 74.6890686 -147.95458984 74.04980469 C-146.1598283 72.1163073 -144.36300631 70.18473583 -142.56616211 68.25317383 C-141.95708008 67.59639648 -141.34799805 66.93961914 -140.72045898 66.26293945 C-134.6733211 59.76786543 -128.65500776 53.4485917 -121.62866211 48.00317383 C-121.03118164 47.53806396 -120.43370117 47.0729541 -119.81811523 46.59375 C-99.02045773 30.6140722 -76.56523191 18.72125864 -51.20654297 11.89648438 C-48.85271109 11.23853983 -46.52481088 10.51058282 -44.19116211 9.78442383 C-8.7638568 -0.82998282 35.11227189 3.35803545 69.87133789 14.31567383 C69.33355713 14.14962646 68.79577637 13.9835791 68.24169922 13.8125 C31.78379741 2.59857373 -4.22845506 -1.46105753 -41.73339844 7.08227539 C-42.51481201 7.25597656 -43.29622559 7.42967773 -44.10131836 7.60864258 C-44.78460205 7.76872803 -45.46788574 7.92881348 -46.171875 8.09375 C-48.39748965 8.34616219 -50.00357478 7.97714843 -52.12866211 7.31567383 C-49.25628177 6.51336717 -46.38126115 5.72387357 -43.50366211 4.94067383 C-42.71475586 4.71895508 -41.92584961 4.49723633 -41.11303711 4.26879883 C-27.42975652 0.57648502 -14.08570723 -0.03171663 0 0 Z M-76.12866211 29.31567383 C-77.54742602 30.03542393 -78.96672389 30.75412221 -80.38647461 31.47192383 C-97.48212069 40.21313653 -112.10048999 51.22271319 -126.12866211 64.31567383 C-126.99104492 65.11231445 -127.85342773 65.90895508 -128.74194336 66.72973633 C-153.53584527 90.48308375 -167.98964836 121.04443191 -178.12866211 153.31567383 C-177.67485316 151.4187524 -177.21541219 149.52317787 -176.75366211 147.62817383 C-176.49842773 146.57243164 -176.24319336 145.51668945 -175.98022461 144.42895508 C-175.12866211 141.31567383 -175.12866211 141.31567383 -174.00366211 138.56567383 C-173.00212071 135.99028165 -173.18463798 134.86453898 -174.12866211 132.31567383 C-178.30155104 142.14932603 -180.92473939 151.89908796 -183.12866211 162.31567383 C-183.3493335 163.33491943 -183.3493335 163.33491943 -183.57446289 164.37475586 C-186.34952603 177.23640702 -187.36729146 189.4742554 -187.37866211 202.62817383 C-187.37933685 203.3339859 -187.3800116 204.03979797 -187.38070679 204.76699829 C-187.36246667 216.83939973 -186.50483014 228.46578574 -184.12866211 240.31567383 C-183.97300781 241.14470215 -183.81735352 241.97373047 -183.65698242 242.82788086 C-175.91527603 283.24391495 -154.11453032 315.17133082 -125.12866211 343.31567383 C-124.46866211 342.98567383 -123.80866211 342.65567383 -123.12866211 342.31567383 C-124.02327148 341.45586914 -124.91788086 340.59606445 -125.83959961 339.71020508 C-133.70040569 332.06548113 -140.82585155 324.30352694 -147.12866211 315.31567383 C-147.55711426 314.71513184 -147.98556641 314.11458984 -148.42700195 313.49584961 C-162.16096215 294.04984467 -173.6644462 270.8407311 -178.12866211 247.31567383 C-177.94916016 247.91178467 -177.7696582 248.50789551 -177.5847168 249.12207031 C-171.23954869 269.87424684 -163.36156028 290.88061273 -150.12866211 308.31567383 C-149.36166992 309.36239258 -148.59467773 310.40911133 -147.80444336 311.48754883 C-142.06440005 319.22566519 -135.7885603 326.36235799 -129.12866211 333.31567383 C-128.65170898 333.8198584 -128.17475586 334.32404297 -127.68334961 334.84350586 C-103.45465002 360.35976001 -70.42664447 378.58920528 -36.12866211 386.31567383 C-34.95561523 386.59024414 -33.78256836 386.86481445 -32.57397461 387.14770508 C13.27576062 397.15576556 61.93304437 388.02261609 101.71850586 363.20385742 C114.83583209 354.74557698 126.60515803 345.09068509 137.87133789 334.31567383 C138.54938477 333.67887695 139.22743164 333.04208008 139.92602539 332.38598633 C168.49393355 304.87127294 184.52741535 266.64579588 191.87133789 228.31567383 C189.66321063 240.52531866 186.87159653 252.31926846 183.14086914 264.15551758 C182.1890105 267.18783835 181.39792237 270.17520014 180.87133789 273.31567383 C183.3101514 270.35999421 184.62016397 267.68789195 185.80883789 264.05395508 C186.14512207 263.0260083 186.48140625 261.99806152 186.82788086 260.93896484 C187.17222168 259.84640381 187.5165625 258.75384277 187.87133789 257.62817383 C188.22728027 256.5027417 188.58322266 255.37730957 188.94995117 254.21777344 C191.49326039 245.97233903 193.50072813 237.86094603 194.61108398 229.30639648 C194.87367058 227.29783076 195.17802615 225.29841205 195.48461914 223.29614258 C198.44154822 202.50515897 198.11788367 180.87965535 193.87133789 160.31567383 C193.70504883 159.47133789 193.53875977 158.62700195 193.36743164 157.75708008 C188.37269698 132.85740285 178.13473972 109.63876687 162.87133789 89.31567383 C162.41404297 88.70498047 161.95674805 88.09428711 161.4855957 87.46508789 C160.04259649 85.55177783 158.58591576 83.65000729 157.12133789 81.75317383 C156.6735498 81.16898682 156.22576172 80.5847998 155.7644043 79.98291016 C153.09782267 76.59398494 150.34400767 73.87020969 146.87133789 71.31567383 C148.17293365 74.10448023 149.61537822 76.4101671 151.55883789 78.79223633 C159.54255708 88.77401349 166.09555072 98.91959181 171.87133789 110.31567383 C172.23598145 111.02723633 172.600625 111.73879883 172.97631836 112.47192383 C179.75394256 125.82467192 184.83738761 139.6394221 187.87133789 154.31567383 C187.56583008 153.15036133 187.26032227 151.98504883 186.94555664 150.78442383 C178.00079423 118.17028824 161.01283527 90.63204723 137.87133789 66.31567383 C137.21907227 65.61055664 136.56680664 64.90543945 135.89477539 64.17895508 C106.29949836 33.13539853 58.74574807 11.18437152 15.75024414 10.07739258 C-16.34844497 9.558118 -47.35578011 14.19228819 -76.12866211 29.31567383 Z " fill="#BD4040" transform="translate(245.128662109375,49.684326171875)"/>
<path d="M0 0 C7.64967407 -0.07642165 15.29924869 -0.12875549 22.94921875 -0.16479492 C25.54854003 -0.17982831 28.14783617 -0.20026046 30.74707031 -0.22631836 C34.49550605 -0.26294101 38.24360472 -0.27978152 41.9921875 -0.29296875 C43.14363251 -0.30845261 44.29507751 -0.32393646 45.48141479 -0.33988953 C56.2870499 -0.34211464 64.93311117 1.50931751 73 9 C77.00197495 13.00197495 77.31352929 16.40907731 77.5 21.875 C77.24172082 29.79000701 75.60929939 34.77326961 69.875 40.25 C65.72501086 43.55914167 60.98110311 45.29620215 56 47 C58.99307659 48.60467976 61.94809123 49.62466309 65.1875 50.625 C72.57206175 53.28423308 77.80539836 57.60834292 82.0625 64.1875 C84.01247167 72.11738478 84.31110788 80.54756095 80.453125 87.9375 C75.17609176 95.42748266 67.60989436 100.44372239 58.72297668 102.53611755 C55.85585751 103.02455591 53.1993257 103.12008877 50.29174805 103.11352539 C49.17096359 103.11344986 48.05017914 103.11337433 46.89543152 103.11329651 C45.6963063 103.10813522 44.49718109 103.10297394 43.26171875 103.09765625 C42.02581497 103.0962413 40.78991119 103.09482635 39.51655579 103.09336853 C36.24341655 103.08872618 32.97032713 103.07975311 29.69720459 103.06866455 C26.35217752 103.05840404 23.00714827 103.05394631 19.66210938 103.04882812 C13.1080535 103.03780907 6.55403082 103.02107836 0 103 C0 101.35 0 99.7 0 98 C0.77085937 97.82984375 1.54171875 97.6596875 2.3359375 97.484375 C3.33882812 97.24203125 4.34171875 96.9996875 5.375 96.75 C6.37273437 96.51796875 7.37046875 96.2859375 8.3984375 96.046875 C11.02933262 95.25737986 11.02933262 95.25737986 12.1444397 93.41223145 C13.32921985 90.07177265 13.29494615 86.85807734 13.29052734 83.35742188 C13.29724457 82.59273087 13.30396179 81.82803986 13.31088257 81.04017639 C13.32985705 78.51630126 13.33378609 75.99269199 13.3359375 73.46875 C13.3423645 71.71284882 13.34909279 69.95694872 13.35610962 68.2010498 C13.36808005 64.52251705 13.37179055 60.8440782 13.37060547 57.16552734 C13.37040199 52.45085033 13.39773464 47.73677415 13.43214989 43.02223969 C13.45437773 39.39684275 13.45844432 35.77159154 13.45738602 32.14613342 C13.45974701 30.40778019 13.46859856 28.66942324 13.48405075 26.93113708 C13.50363344 24.50118749 13.49790465 22.07254853 13.48583984 19.64257812 C13.49707886 18.92453506 13.50831787 18.206492 13.51989746 17.46669006 C13.4768885 14.0602306 13.23317007 12.30041257 11.11709595 9.57409668 C8.77372821 7.8317631 7.11013412 7.25472955 4.25 6.75 C3.45078125 6.60046875 2.6515625 6.4509375 1.828125 6.296875 C1.22484375 6.19890625 0.6215625 6.1009375 0 6 C0 4.02 0 2.04 0 0 Z " fill="#B93737" transform="translate(208,198)"/>
<path d="M0 0 C0.66 0.66 1.32 1.32 2 2 C1.60788341 6.57247816 0.1665506 10.6773258 -1.3125 15 C-3.54214345 21.80322917 -5.04190534 28.64534122 -6.3125 35.6875 C-6.48370361 36.63173828 -6.65490723 37.57597656 -6.83129883 38.54882812 C-7.56131599 42.7672112 -8.08510999 46.70788879 -8 51 C-7.89453857 50.42668945 -7.78907715 49.85337891 -7.68041992 49.26269531 C-1.47610577 15.69274374 -1.47610577 15.69274374 3 6 C3.99 5.67 4.98 5.34 6 5 C5.4344661 9.558546 4.56444912 13.74728924 3.1875 18.125 C1.38152003 24.28115069 0.01547147 30.44903956 -1.1875 36.75 C-1.35419189 37.61254395 -1.52088379 38.47508789 -1.69262695 39.36376953 C-3.73419593 50.35070313 -4.24034524 61.1435757 -4.25 72.3125 C-4.25067474 73.01831207 -4.25134949 73.72412415 -4.25204468 74.45132446 C-4.23380456 86.5237259 -3.37616803 98.15011192 -1 110 C-0.8443457 110.82902832 -0.68869141 111.65805664 -0.52832031 112.51220703 C7.08740316 152.27053987 28.38483033 184.29808043 57 212 C54.47604144 208.74035846 51.86942904 205.82868573 48.875 203 C43.29589674 197.45736147 38.56095565 191.38397235 34 185 C33.56429687 184.39220703 33.12859375 183.78441406 32.6796875 183.15820312 C19.27870598 164.1734793 0.48264092 133.27774531 2 109 C3.42100516 111.6834513 4.45170884 114.24402242 5.26171875 117.16796875 C5.48956055 117.96984619 5.71740234 118.77172363 5.95214844 119.59790039 C6.19481445 120.45246826 6.43748047 121.30703613 6.6875 122.1875 C20.89212973 170.51032248 53.19105232 211.26258132 96.99609375 236.13330078 C112.37613191 244.51573103 128.91002896 251.15006147 146 255 C147.75957031 255.41185547 147.75957031 255.41185547 149.5546875 255.83203125 C195.40442273 265.84009174 244.06170648 256.70694226 283.84716797 231.88818359 C308.3830007 216.06705126 328.8025898 196.2961153 345 172 C345.99 172.33 346.98 172.66 348 173 C349.32 170.69 350.64 168.38 352 166 C352.66 166 353.32 166 354 166 C351.62528114 172.738731 347.17651681 178.28214961 343 184 C342.06414062 185.28197266 342.06414062 185.28197266 341.109375 186.58984375 C330.28305667 200.51882648 316.96075344 213.25653954 303 224 C302.34 224.66 301.68 225.32 301 226 C309.32703218 219.94787867 317.57568348 213.77054949 324.65234375 206.2421875 C326 205 326 205 328 205 C328.26554687 204.40445313 328.53109375 203.80890625 328.8046875 203.1953125 C330.03446248 200.93670616 331.24774053 199.61255644 333.125 197.875 C336.90890508 194.23358507 340.0420079 190.22438154 343.203125 186.0390625 C345 184 345 184 348 183 C338.63367865 210.73872092 301.78841218 233.24579289 277.09521484 245.55859375 C257.36699954 255.05508215 237.68230013 260.87563449 216 264 C214.85217041 264.16798096 214.85217041 264.16798096 213.68115234 264.33935547 C205.44610502 265.34827915 197.11098147 265.22223256 188.82714844 265.24023438 C186.16568681 265.24985296 183.50502847 265.28091213 180.84375 265.3125 C162.70719599 265.42447347 145.52970313 262.47325326 128 258 C131.4567288 258.96418334 134.91565787 259.92023933 138.375 260.875 C139.82326172 261.27912109 139.82326172 261.27912109 141.30078125 261.69140625 C167.49408395 268.89895934 195.25207846 270.57552372 222.0234375 265.65625 C225.38396278 265.04379546 228.57573544 264.86955183 232 265 C221.2773987 272.14840087 202.79859208 270.47327148 190.38427734 270.39111328 C187.50179766 270.37501004 184.62071936 270.39108021 181.73828125 270.41015625 C166.2965167 270.42800686 151.22780092 268.83375722 136.3125 264.6875 C135.53326172 264.47512695 134.75402344 264.26275391 133.95117188 264.04394531 C101.83296351 255.0409162 74.01054005 237.96094341 50 215 C49.07316406 214.12601563 48.14632812 213.25203125 47.19140625 212.3515625 C24.38055102 190.2848912 9.39355556 162.29541102 -2 133 C-2.27714844 132.30342285 -2.55429687 131.6068457 -2.83984375 130.88916016 C-18.27233194 91.63016148 -16.93282284 42.7025837 -3.03735352 3.26806641 C-2 1 -2 1 0 0 Z " fill="#BC3F3F" transform="translate(63,180)"/>
<path d="M0 0 C7.64967407 -0.07642165 15.29924869 -0.12875549 22.94921875 -0.16479492 C25.54854003 -0.17982831 28.14783617 -0.20026046 30.74707031 -0.22631836 C34.49550605 -0.26294101 38.24360472 -0.27978152 41.9921875 -0.29296875 C43.14363251 -0.30845261 44.29507751 -0.32393646 45.48141479 -0.33988953 C56.2462125 -0.34210623 65.75802514 1.71715042 74 9 C79.73893782 16.23188346 80.7777808 22.89996461 80 32 C78.29219718 39.19129019 74.69093915 45.26432563 69 50 C59.41021494 55.86331967 50.71257152 58.33371264 39.5625 58.125 C38.64017578 58.11597656 37.71785156 58.10695313 36.76757812 58.09765625 C34.51144191 58.0742766 32.25586316 58.04150916 30 58 C30.04417668 62.76955757 30.11403164 67.53779423 30.20751953 72.30664062 C30.23571347 73.92827837 30.25693594 75.55005313 30.27099609 77.171875 C30.29244872 79.50592105 30.33910575 81.83832261 30.390625 84.171875 C30.39185364 84.89493835 30.39308228 85.61800171 30.39434814 86.36297607 C30.49390705 89.79831751 30.75420286 91.68079622 32.87695312 94.4375 C35.3670528 96.27014005 37.20939096 96.76990384 40.25 97.25 C41.14203125 97.39953125 42.0340625 97.5490625 42.953125 97.703125 C43.62859375 97.80109375 44.3040625 97.8990625 45 98 C45 99.65 45 101.3 45 103 C30.48 103 15.96 103 1 103 C1 101.35 1 99.7 1 98 C1.77085937 97.80664062 2.54171875 97.61328125 3.3359375 97.4140625 C4.33882813 97.15367187 5.34171875 96.89328125 6.375 96.625 C7.37273437 96.36976563 8.37046875 96.11453125 9.3984375 95.8515625 C12.12541015 95.17595681 12.12541015 95.17595681 14 93 C14.1983989 90.39598459 14.27276085 87.89832609 14.25878906 85.29321289 C14.2622937 84.49794693 14.26579834 83.70268097 14.26940918 82.88331604 C14.2782338 80.24634144 14.27237427 77.60963373 14.265625 74.97265625 C14.26697158 73.14424081 14.26891204 71.31582571 14.27142334 69.4874115 C14.2743757 65.65148517 14.27007387 61.81565186 14.26074219 57.97973633 C14.24935563 53.05881107 14.25590136 48.13810415 14.26788712 43.21718693 C14.27510956 39.44000093 14.27281587 35.6628668 14.26763153 31.88567924 C14.26629568 30.07116101 14.26794049 28.25663809 14.27259064 26.44212532 C14.27766128 23.90668368 14.26993776 21.37159682 14.25878906 18.83618164 C14.26283752 18.083349 14.26688599 17.33051636 14.27105713 16.55487061 C14.24058768 12.82054087 14.12658958 11.18988438 12 8 C9.12883998 6.97889461 9.12883998 6.97889461 5.875 6.3125 C4.77929688 6.06113281 3.68359375 5.80976563 2.5546875 5.55078125 C1.71164062 5.36902344 0.86859375 5.18726563 0 5 C0 3.35 0 1.7 0 0 Z " fill="#B93737" transform="translate(304,198)"/>
<path d="M0 0 C25.74 0 51.48 0 78 0 C77.02734537 4.86327313 76.31843461 6.3251964 73.4296875 10.07421875 C69.09155669 15.84325641 65.09369239 21.78553479 61.125 27.8125 C56.11583754 35.3768878 51.02371603 42.83342182 45.6953125 50.17578125 C41.24950774 56.39956032 37.08862048 62.82583517 32.8828125 69.21289062 C29.01165371 75.06995387 24.99677833 80.77999118 20.83642578 86.43481445 C18.38316885 89.86161193 16.17779963 93.39301937 14 97 C18.82006012 96.90570698 23.63966208 96.79945516 28.45922852 96.68261719 C30.09522486 96.644582 31.73129761 96.60968712 33.36743164 96.578125 C47.7409848 96.9868488 47.7409848 96.9868488 60.625 92 C65.88588976 85.35466557 70.43444717 78.70159412 74 71 C75.65 71 77.3 71 79 71 C79.60844166 82.08715908 77.691718 91.72188002 76 103 C48.61 103 21.22 103 -7 103 C-6.06327823 99.25311294 -5.21606767 97.54968977 -3.078125 94.46484375 C-2.16788574 93.14154053 -2.16788574 93.14154053 -1.23925781 91.79150391 C-0.58280273 90.84968262 0.07365234 89.90786133 0.75 88.9375 C1.42450195 87.95958496 2.09900391 86.98166992 2.79394531 85.97412109 C4.18595405 83.95600238 5.58017601 81.93940853 6.9765625 79.92431641 C9.91981457 75.67066374 12.83407543 71.39740559 15.75 67.125 C20.1027345 60.76245025 24.46691662 54.40783008 28.83691406 48.05712891 C32.94739712 42.0816219 37.04172743 36.09511813 41.13549805 30.1081543 C46.41014587 22.39612981 51.70270059 14.69647709 57 7 C52.73162357 6.95017161 48.463406 6.91407985 44.19482422 6.89013672 C42.74590094 6.88014414 41.29699749 6.86654547 39.84814453 6.84912109 C27.06708333 6.37948089 27.06708333 6.37948089 15.296875 10.6796875 C12.43206202 13.57373326 10.36930111 16.66418843 8.25 20.125 C7.65251953 21.07439453 7.65251953 21.07439453 7.04296875 22.04296875 C5.61321018 24.32573582 4.20530523 26.58938954 3 29 C1.35 29 -0.3 29 -2 29 C-2.32647178 19.04261064 -1.07296347 10.19315297 0 0 Z " fill="#BA3939" transform="translate(120,198)"/>
<path d="M0 0 C2.88165413 -0.04065826 5.76272786 -0.07033317 8.64453125 -0.09375 C9.45539185 -0.10631836 10.26625244 -0.11888672 11.10168457 -0.13183594 C18.5494316 -0.17719141 24.42804191 0.78391965 30.1171875 5.90625 C36.20341793 12.45689158 36.35987197 17.62396318 36.27734375 26.4453125 C35.78406333 32.76763906 33.829141 37.67585198 29.0625 41.9375 C22.0309511 46.67303293 15.31614035 46.81798102 7 46 C3.70898016 44.76732119 1.60839135 43.2167827 0 40 C-0.08705146 37.01029711 -0.11550145 34.04415045 -0.09765625 31.0546875 C-0.0962413 30.1696756 -0.09482635 29.2846637 -0.09336853 28.37283325 C-0.0877614 25.54018809 -0.07520771 22.70762136 -0.0625 19.875 C-0.05748592 17.95703239 -0.05292285 16.03906354 -0.04882812 14.12109375 C-0.03778966 9.41403218 -0.02052025 4.7070294 0 0 Z " fill="#FDFBFB" transform="translate(237,249)"/>
<path d="M0 0 C20.55813953 0 20.55813953 0 25.734375 4.51171875 C31.41929959 10.53503171 32.48290447 17.13803651 32.31640625 25.21875 C31.66688098 30.92815731 29.29298448 35.23683934 25.9375 39.8125 C17.50876642 46.08921649 10.66694365 46 0 46 C0 30.82 0 15.64 0 0 Z " fill="#FDF9F9" transform="translate(334,204)"/>
<path d="M0 0 C21.59541985 0 21.59541985 0 26.7421875 4.53515625 C31.76437643 11.30645236 31.65185876 16.63600947 31 25 C29.38667735 30.96468432 26.02595493 34.58235065 21 38 C15 40 15 40 0 40 C0 26.8 0 13.6 0 0 Z " fill="#FDFBFB" transform="translate(237,204)"/>
<path d="M0 0 C0 4.16951918 -1.72957836 5.19414465 -4.5625 8.1875 C-7.54873217 11.35890874 -10.45984414 14.53864086 -13.1875 17.9375 C-35.63981165 43.58979065 -77.58412515 64.18696594 -111.27734375 66.75 C-113.25616224 66.93169926 -115.22821122 67.19242477 -117.19140625 67.5 C-148.41921529 72.26861559 -181.26058795 68.48151285 -211 58 C-207.87190896 56.99554693 -205.94423681 57.0368182 -202.796875 57.92578125 C-201.97960937 58.14556641 -201.16234375 58.36535156 -200.3203125 58.59179688 C-198.65327493 59.0592261 -196.98658584 59.52790062 -195.3203125 59.99804688 C-180.63456614 63.94228371 -165.91668989 64.37271615 -150.8125 64.3125 C-149.45912033 64.31076279 -149.45912033 64.31076279 -148.07839966 64.30899048 C-135.55787788 64.27721779 -123.34988358 63.88425429 -111.03955078 61.39257812 C-109.08972632 61.01727076 -107.12036684 60.74811007 -105.15234375 60.484375 C-64.12225299 54.54413435 -28.18633468 29.01670134 0 0 Z " fill="#F6E6E6" transform="translate(399,380)"/>
<path d="M0 0 C0.33 0 0.66 0 1 0 C0.5233162 5.44423076 -0.12905501 10.81041071 -1.01953125 16.203125 C-2.28482149 25.01051483 -2.34864322 33.74024996 -2.3125 42.625 C-2.31200653 43.46050385 -2.31151306 44.29600769 -2.31100464 45.15682983 C-2.2908786 56.28946147 -1.89648553 67.12296619 0.24609375 78.08203125 C0.79180761 80.9180468 1.17511929 83.56418662 1.4375 86.421875 C1.94467155 91.27251574 3.13981345 95.78164579 4.5625 100.4375 C4.95731567 101.73457886 4.95731567 101.73457886 5.36010742 103.05786133 C8.19137936 112.04692424 11.86163134 120.54325122 16 129 C16.34933594 129.71784668 16.69867188 130.43569336 17.05859375 131.17529297 C27.14475955 151.64780807 40.57685789 169.21810856 57 185 C53.38307401 185 53.0713443 184.4554407 50.59375 181.9921875 C49.93777832 181.34241943 49.28180664 180.69265137 48.60595703 180.02319336 C47.91099121 179.31428955 47.21602539 178.60538574 46.5 177.875 C45.78312012 177.14869385 45.06624023 176.4223877 44.32763672 175.67407227 C19.18979228 149.82934916 2.91232258 118.34527739 -4 83 C-4.16371094 82.19224121 -4.32742187 81.38448242 -4.49609375 80.55224609 C-6.78862033 68.83620377 -7.26138127 57.21781349 -7.25 45.3125 C-7.24940582 44.62513763 -7.24881165 43.93777527 -7.24819946 43.22958374 C-7.2224188 35.43390742 -6.98507196 27.73739664 -6 20 C-5.34 20.99 -4.68 21.98 -4 23 C-3.91435791 22.40985107 -3.82871582 21.81970215 -3.74047852 21.21166992 C-3.35064401 18.53652607 -2.95661986 15.86201571 -2.5625 13.1875 C-2.42779297 12.25873047 -2.29308594 11.32996094 -2.15429688 10.37304688 C-2.02216797 9.48037109 -1.89003906 8.58769531 -1.75390625 7.66796875 C-1.63345947 6.84578857 -1.5130127 6.0236084 -1.38891602 5.17651367 C-1 3 -1 3 0 0 Z " fill="#F6E6E6" transform="translate(65,207)"/>
<path d="M0 0 C0.99 0.495 0.99 0.495 2 1 C0.60201172 1.99966797 0.60201172 1.99966797 -0.82421875 3.01953125 C-9.56098001 9.31563077 -17.91167205 15.89277043 -26 23 C-26.5062793 23.43779785 -27.01255859 23.8755957 -27.53417969 24.32666016 C-53.75375398 47.05197519 -73.16298737 78.14568335 -82.625 111.5 C-82.8310083 112.21502686 -83.0370166 112.93005371 -83.24926758 113.66674805 C-87.20422192 127.58750412 -89.92003252 141.56254 -91 156 C-91.33 156 -91.66 156 -92 156 C-92.95519578 137.47981522 -89.35972152 119.36586901 -83 102 C-82.71592285 101.20223145 -82.4318457 100.40446289 -82.13916016 99.58251953 C-68.02967851 60.55047524 -37.91635447 19.34651979 0 0 Z " fill="#F8EAEA" transform="translate(146,86)"/>
<path d="M0 0 C0.33 0 0.66 0 1 0 C3.03445843 45.51158866 -19.00219344 88.69163991 -48.82421875 121.67578125 C-51.16282129 124.17392938 -53.57662825 126.58420128 -56 129 C-56.69738281 129.74378906 -57.39476562 130.48757813 -58.11328125 131.25390625 C-65.34710176 138.84749048 -73.51868562 144.87577547 -82 151 C-82.66 150.67 -83.32 150.34 -84 150 C-83.17757813 149.31035156 -82.35515625 148.62070312 -81.5078125 147.91015625 C-40.87619348 113.75462234 -8.33867433 71.4574803 -2 17 C-1.79895107 15.40094416 -1.59709231 13.80198999 -1.39453125 12.203125 C-0.89120342 8.13908175 -0.43320043 4.07208405 0 0 Z " fill="#F7E8E8" transform="translate(445,257)"/>
<path d="M0 0 C0 3 0 3 -1.35546875 4.61328125 C-2.26232422 5.45439453 -2.26232422 5.45439453 -3.1875 6.3125 C-8.94346002 11.60394331 -8.94346002 11.60394331 -12.82421875 18.23828125 C-14.38822872 21.91188607 -16.62917333 24.86865779 -19 28.0625 C-23.02434087 33.22863608 -23.02434087 33.22863608 -26 39 C-25.67 39.66 -25.34 40.32 -25 41 C-26.43581443 43.58264078 -27.92800777 46.06442218 -29.5 48.5625 C-34.67993967 57.02953314 -38.49721228 65.73269077 -42 75 C-43.32 74.34 -44.64 73.68 -46 73 C-45.33006733 68.57335628 -43.74382014 64.68773973 -41.9375 60.625 C-41.62586914 59.92310547 -41.31423828 59.22121094 -40.99316406 58.49804688 C-31.00225914 36.32917326 -17.55396289 16.89431501 0 0 Z " fill="#C04A4A" transform="translate(108,108)"/>
<path d="M0 0 C0.99 0.33 1.98 0.66 3 1 C2.50016602 1.74890503 2.50016602 1.74890503 1.99023438 2.51293945 C0.48635316 4.77480834 -1.00689989 7.04350143 -2.5 9.3125 C-3.02464844 10.09818359 -3.54929687 10.88386719 -4.08984375 11.69335938 C-4.83427734 12.8293457 -4.83427734 12.8293457 -5.59375 13.98828125 C-6.05458984 14.68477783 -6.51542969 15.38127441 -6.99023438 16.09887695 C-8.2345403 18.08280294 -8.2345403 18.08280294 -8 21 C-9.11773705 23.3514096 -10.28120944 25.63948147 -11.5 27.9375 C-18.91034624 42.35547435 -24.48264277 57.44986645 -29 73 C-29.33 73 -29.66 73 -30 73 C-29.45484328 65.91296261 -27.39081395 59.67203894 -25 53 C-25.495 53.495 -25.495 53.495 -26 54 C-26.99 53.67 -27.98 53.34 -29 53 C-28.0021914 46.87189028 -25.23435612 41.67995047 -22.5625 36.125 C-22.0247998 35.00617432 -21.48709961 33.88734863 -20.93310547 32.73461914 C-16.62332653 23.9390352 -11.79994013 15.87722365 -6 8 C-5.35546875 7.11570313 -4.7109375 6.23140625 -4.046875 5.3203125 C-2.72089952 3.52962599 -1.36547878 1.76074895 0 0 Z " fill="#BE4444" transform="translate(96,133)"/>
<path d="M0 0 C0.33 0 0.66 0 1 0 C1.16481949 6.35822878 0.67574749 12.09545282 -0.625 18.3125 C-0.7988623 19.16553711 -0.97272461 20.01857422 -1.15185547 20.89746094 C-2.85626663 28.92184631 -5.16779913 36.72798275 -7.6328125 44.546875 C-8.92662534 48.66338908 -9.9941615 52.80421656 -11 57 C-10.34 57 -9.68 57 -9 57 C-10.48008696 62.00113594 -12.6318336 66.32915597 -15.125 70.875 C-15.49753906 71.56335938 -15.87007813 72.25171875 -16.25390625 72.9609375 C-17.16499526 74.64294798 -18.08190315 76.32180436 -19 78 C-19.99 77.67 -20.98 77.34 -22 77 C-22.4021875 78.1446875 -22.4021875 78.1446875 -22.8125 79.3125 C-23.94424112 81.87380884 -24.91223401 83.19692938 -27 85 C-27.7421875 83.43359375 -27.7421875 83.43359375 -28 81 C-26.79957584 78.56597414 -25.54994396 76.35889258 -24.125 74.0625 C-10.53969726 50.95756906 -4.02354067 26.30470978 0 0 Z " fill="#C65B5B" transform="translate(437,269)"/>
<path d="M0 0 C2.90476696 0.00314238 5.80849411 -0.02031955 8.71313477 -0.0456543 C39.94312335 -0.14843344 39.94312335 -0.14843344 48.87133789 4.31567383 C48.87133789 5.30567383 48.87133789 6.29567383 48.87133789 7.31567383 C48.1559082 7.19450195 47.44047852 7.07333008 46.70336914 6.94848633 C43.42711476 6.39749918 40.14928741 5.85648031 36.87133789 5.31567383 C35.8155957 5.13649414 34.75985352 4.95731445 33.67211914 4.77270508 C8.56238593 0.66496274 -16.93530493 1.43346354 -41.73339844 7.08227539 C-42.9055188 7.34282715 -42.9055188 7.34282715 -44.10131836 7.60864258 C-44.78460205 7.76872803 -45.46788574 7.92881348 -46.171875 8.09375 C-48.39748965 8.34616219 -50.00357478 7.97714843 -52.12866211 7.31567383 C-49.25628177 6.51336717 -46.38126115 5.72387357 -43.50366211 4.94067383 C-42.71475586 4.71895508 -41.92584961 4.49723633 -41.11303711 4.26879883 C-27.42975652 0.57648502 -14.08570723 -0.03171663 0 0 Z " fill="#C65A5A" transform="translate(245.128662109375,49.684326171875)"/>
<path d="M0 0 C0.66 0.66 1.32 1.32 2 2 C0.32175797 14.41487068 -12.89159688 27.09191492 -21 36 C-21.99513099 37.10516331 -22.98992879 38.21062673 -23.984375 39.31640625 C-26.30793246 41.89149522 -28.64828171 44.45057088 -31 47 C-31.66 46.67 -32.32 46.34 -33 46 C-31.84371094 44.78763672 -31.84371094 44.78763672 -30.6640625 43.55078125 C-29.6506686 42.47170441 -28.63766842 41.39225771 -27.625 40.3125 C-27.11710937 39.78205078 -26.60921875 39.25160156 -26.0859375 38.70507812 C-23.1638769 35.57155262 -21.52492291 33.04104572 -20 29 C-17.7210746 25.86956276 -15.31617718 22.86392509 -12.8984375 19.83984375 C-10.62949646 17.01509593 -10.62949646 17.01509593 -11 13 C-8.81825388 8.76168992 -6.35370365 5.95166026 -2 4 C-0.73195434 1.9664052 -0.73195434 1.9664052 0 0 Z " fill="#C86161" transform="translate(421,348)"/>
<path d="M0 0 C0.66 0 1.32 0 2 0 C-1.28379514 9.31841343 -11.53553071 25.28209279 -20.26171875 30.30078125 C-20.83535156 30.53152344 -21.40898437 30.76226562 -22 31 C-22.33 30.67 -22.66 30.34 -23 30 C-23.66 30.33 -24.32 30.66 -25 31 C-23.3759051 27.20142248 -20.93593414 24.42574184 -18.25 21.3125 C-14.09933768 16.44226937 -10.38173967 11.44377605 -7 6 C-6.01 6.33 -5.02 6.66 -4 7 C-2.68 4.69 -1.36 2.38 0 0 Z " fill="#C04B4B" transform="translate(415,346)"/>
<path d="M0 0 C0 4.16951918 -1.72957836 5.19414465 -4.5625 8.1875 C-7.54873217 11.35890874 -10.45984414 14.53864086 -13.1875 17.9375 C-20.05058085 25.86780634 -29.22976345 32.32434614 -38 38 C-38.66 37.67 -39.32 37.34 -40 37 C-37.18681172 32.22652159 -34.21683294 29.40741711 -29.5625 26.375 C-18.56939552 18.86938309 -9.2807112 9.49654169 0 0 Z " fill="#EDCDCD" transform="translate(399,380)"/>
<path d="M0 0 C0 3 0 3 -1.35546875 4.61328125 C-1.96003906 5.17402344 -2.56460938 5.73476562 -3.1875 6.3125 C-8.94346002 11.60394331 -8.94346002 11.60394331 -12.82421875 18.23828125 C-14.38822872 21.91188607 -16.62917333 24.86865779 -19 28.0625 C-23.02434087 33.22863608 -23.02434087 33.22863608 -26 39 C-25.67 39.66 -25.34 40.32 -25 41 C-25.77734375 42.7265625 -25.77734375 42.7265625 -26.9375 44.625 C-27.618125 45.73875 -28.29875 46.8525 -29 48 C-29.99 47.67 -30.98 47.34 -32 47 C-31.71125 46.29875 -31.4225 45.5975 -31.125 44.875 C-30.36613842 42.93568707 -29.65854427 40.97563281 -29 39 C-27.18279734 33.54839202 -24.9282415 29.10560604 -21.5625 24.4375 C-21.12655518 23.8297876 -20.69061035 23.2220752 -20.24145508 22.59594727 C-14.23435611 14.39047845 -7.20598978 7.1542412 0 0 Z " fill="#CE7171" transform="translate(108,108)"/>
<path d="M0 0 C0.66 0.33 1.32 0.66 2 1 C0.45730076 5.72065967 -1.07794619 10.41664092 -3 15 C-2.34 15.33 -1.68 15.66 -1 16 C-4.465 22.435 -4.465 22.435 -8 29 C-8.99 28.67 -9.98 28.34 -11 28 C-12.32 29.65 -13.64 31.3 -15 33 C-15 28.2005781 -13.25433198 25.54271426 -10.875 21.5625 C-6.79083523 14.54306903 -3.25234457 7.44850678 0 0 Z " fill="#C75E5E" transform="translate(432,322)"/>
<path d="M0 0 C0.33 0 0.66 0 1 0 C1 6.6 1 13.2 1 20 C1.66 20 2.32 20 3 20 C1.58924495 36.44477158 -0.94282781 61.99344196 -12 75 C-11.33431482 71.02994981 -10.18910928 67.29330098 -8.98095703 63.46459961 C-2.55033058 43.12765916 -2.55033058 43.12765916 -0.92578125 22.0078125 C-1.03463302 17.5964512 -0.74996718 13.21620299 -0.5 8.8125 C-0.45206299 7.94874756 -0.40412598 7.08499512 -0.35473633 6.19506836 C-0.2389542 4.12990599 -0.11983022 2.06493143 0 0 Z " fill="#F7EAEA" transform="translate(438,248)"/>
<path d="M0 0 C1.54940849 4.64822548 0.1159773 8.08459367 -1.85546875 12.4140625 C-2.22808838 13.2491333 -2.60070801 14.0842041 -2.98461914 14.94458008 C-3.38156982 15.82911865 -3.77852051 16.71365723 -4.1875 17.625 C-8.55714939 27.55045885 -11.9682414 37.59690677 -15 48 C-15.33 48 -15.66 48 -16 48 C-15.53900088 42.00701147 -14.07857751 36.87120094 -12.03515625 31.22265625 C-11.21912 28.68216605 -10.64096906 26.31828432 -10.125 23.71484375 C-9.04340303 18.66014169 -7.10134289 14.17606835 -4.9375 9.5 C-4.39125977 8.28570312 -4.39125977 8.28570312 -3.83398438 7.046875 C-1.16397849 1.16397849 -1.16397849 1.16397849 0 0 Z " fill="#CF7676" transform="translate(82,158)"/>
<path d="M0 0 C1.41799468 3.79040886 0.53025884 6.18485724 -0.75 9.9375 C-5.30279236 23.97265988 -7.90033077 38.29915871 -9 53 C-9.33 53 -9.66 53 -10 53 C-10.88847329 35.77349015 -8.28978501 17.14730521 -2 1 C-1.34 0.67 -0.68 0.34 0 0 Z " fill="#F1D9D9" transform="translate(64,189)"/>
<path d="M0 0 C0.33 0 0.66 0 1 0 C1.16481674 6.35812258 0.67608394 12.09558422 -0.625 18.3125 C-0.7995874 19.1669873 -0.9741748 20.02147461 -1.15405273 20.90185547 C-3.01137998 29.63105428 -5.55070318 38.13298761 -8.26220703 46.62988281 C-8.79011216 48.32574746 -9.29358567 50.02929408 -9.78076172 51.73730469 C-10.03744629 52.63610352 -10.29413086 53.53490234 -10.55859375 54.4609375 C-10.78732178 55.28126465 -11.0160498 56.1015918 -11.25170898 56.94677734 C-12 59 -12 59 -14 61 C-15.45418088 56.37071412 -14.41626536 53.95943841 -12.4375 49.625 C-5.68779768 33.90888876 -2.40021042 16.86463637 0 0 Z " fill="#D27F7F" transform="translate(437,269)"/>
<path d="M0 0 C0.33 0 0.66 0 1 0 C1.65033974 14.5483409 1.28742413 36.5688638 -7 49 C-7.66 49 -8.32 49 -9 49 C-8.82984375 48.36578125 -8.6596875 47.7315625 -8.484375 47.078125 C-4.45539045 31.56224835 -1.57043414 15.95230465 0 0 Z " fill="#F2DBDB" transform="translate(445,257)"/>
<path d="M0 0 C1.74033874 4.10594888 0.03949619 7.45691088 -1.4375 11.375 C-3.17816095 16.01060634 -4.31844545 19.98254242 -4 25 C-4.66 25 -5.32 25 -6 25 C-6.08040527 25.68102783 -6.16081055 26.36205566 -6.24365234 27.0637207 C-6.61247819 30.14770454 -6.99359015 33.23004829 -7.375 36.3125 C-7.50132813 37.38435547 -7.62765625 38.45621094 -7.7578125 39.56054688 C-7.95117188 41.10258789 -7.95117188 41.10258789 -8.1484375 42.67578125 C-8.26364746 43.62364502 -8.37885742 44.57150879 -8.49755859 45.5480957 C-9 48 -9 48 -11 51 C-11.17661273 44.30909451 -10.59385892 38.13741351 -9.375 31.5625 C-9.20186279 30.6147168 -9.02872559 29.66693359 -8.8503418 28.69042969 C-6.97783756 19.01326309 -4.43156185 8.8631237 0 0 Z " fill="#F5E3E3" transform="translate(71,182)"/>
<path d="M0 0 C1.37104085 0.24071839 2.7381961 0.50421068 4.1015625 0.78515625 C4.83818115 0.92630859 5.5747998 1.06746094 6.33374023 1.21289062 C18.71200116 3.71297782 30.95834412 7.27641767 42.7265625 11.84765625 C38.4389992 13.27684402 35.28442328 11.54887044 31.1640625 10.16015625 C18.93508876 6.22990634 6.42947048 4.51719843 -6.2734375 2.84765625 C-3.68261719 -0.17138672 -3.68261719 -0.17138672 0 0 Z " fill="#F1D7D7" transform="translate(277.2734375,53.15234375)"/>
<path d="M0 0 C0.66 0.33 1.32 0.66 2 1 C1.525625 1.433125 1.05125 1.86625 0.5625 2.3125 C-1.23686957 4.02309613 -1.23686957 4.02309613 -2 7 C-3.90683744 8.64432276 -5.78757418 10.14276386 -7.8125 11.625 C-8.34681641 12.03234375 -8.88113281 12.4396875 -9.43164062 12.859375 C-12.27084605 14.96869859 -14.56556378 16.25599741 -18 17 C-20.7295585 19.47906969 -20.7295585 19.47906969 -23 22 C-23.66 21.67 -24.32 21.34 -25 21 C-18.63196204 14.11251484 -11.49254774 8.5797677 -4 3 C-3.21109375 2.40832031 -2.4221875 1.81664063 -1.609375 1.20703125 C-1.07828125 0.80871094 -0.5471875 0.41039063 0 0 Z " fill="#E6B7B7" transform="translate(136,84)"/>
<path d="M0 0 C0.99 0.33 1.98 0.66 3 1 C2.66677734 1.49927002 2.33355469 1.99854004 1.99023438 2.51293945 C0.48635316 4.77480834 -1.00689989 7.04350143 -2.5 9.3125 C-3.02464844 10.09818359 -3.54929687 10.88386719 -4.08984375 11.69335938 C-4.58613281 12.45068359 -5.08242187 13.20800781 -5.59375 13.98828125 C-6.05458984 14.68477783 -6.51542969 15.38127441 -6.99023438 16.09887695 C-8.2345403 18.08280294 -8.2345403 18.08280294 -8 21 C-8.66 21.99 -9.32 22.98 -10 24 C-10.66 23.67 -11.32 23.34 -12 23 C-11.69762493 16.05312664 -9.71931742 12.37766333 -5.4375 7 C-4.91736328 6.32066406 -4.39722656 5.64132813 -3.86132812 4.94140625 C-2.58849212 3.28321623 -1.29619444 1.63999561 0 0 Z " fill="#C45656" transform="translate(96,133)"/>
<path d="M0 0 C0 7.60149582 -3.01759352 10.90427237 -8.26171875 16.34765625 C-9.81568959 17.88621581 -11.37544309 19.41896055 -12.94140625 20.9453125 C-15.1603032 23.15999902 -17.13202446 25.48229384 -19 28 C-19.66 27.67 -20.32 27.34 -21 27 C-19.84371094 25.78763672 -19.84371094 25.78763672 -18.6640625 24.55078125 C-17.6506686 23.47170441 -16.63766842 22.39225771 -15.625 21.3125 C-15.11710937 20.78205078 -14.60921875 20.25160156 -14.0859375 19.70507812 C-11.16951144 16.57759491 -9.50395437 14.04511866 -8 10 C-6.68164547 8.1866007 -5.30347099 6.4154891 -3.875 4.6875 C-3.15054687 3.80449219 -2.42609375 2.92148437 -1.6796875 2.01171875 C-1.12539063 1.34785156 -0.57109375 0.68398438 0 0 Z " fill="#D07979" transform="translate(409,367)"/>
<path d="M0 0 C5.34885853 0.57393725 10.29672856 1.51305069 15.5 2.9375 C23.59421738 5.07712821 31.68213464 6.15936467 40 7 C39.67 7.99 39.34 8.98 39 10 C31.71336115 9.38326254 24.88611528 7.88667908 17.8125 6.0625 C16.75869141 5.79759766 15.70488281 5.53269531 14.61914062 5.25976562 C9.68080966 4.00573451 4.80243499 2.71693272 0 1 C0 0.67 0 0.34 0 0 Z " fill="#EBC7C7" transform="translate(188,437)"/>
<path d="M0 0 C0.99 0 1.98 0 3 0 C4.58626141 2.83170323 6.16845593 5.66565978 7.75 8.5 C8.1934375 9.29148438 8.636875 10.08296875 9.09375 10.8984375 C10.40922278 13.25855044 11.70824917 15.6268295 13 18 C13.41443359 18.75023437 13.82886719 19.50046875 14.25585938 20.2734375 C15.2500885 22.1421091 16.13487433 24.06816598 17 26 C16.67 26.99 16.34 27.98 16 29 C15.59273682 28.25278687 15.59273682 28.25278687 15.17724609 27.49047852 C8.55709584 15.21339361 8.55709584 15.21339361 0.9609375 3.53125 C0 2 0 2 0 0 Z " fill="#BF4848" transform="translate(405,142)"/>
<path d="M0 0 C2.15155291 2.02836353 3.76864233 4.02389582 5.3046875 6.546875 C5.72363281 7.2275 6.14257812 7.908125 6.57421875 8.609375 C7.21810547 9.66898437 7.21810547 9.66898437 7.875 10.75 C11.06924846 15.98583233 14.3814536 21.04557446 18 26 C17.01 26.33 16.02 26.66 15 27 C13.05667293 24.12889969 11.12141285 21.25244818 9.1875 18.375 C8.64029297 17.56675781 8.09308594 16.75851562 7.52929688 15.92578125 C0 4.70028409 0 4.70028409 0 0 Z " fill="#BE4444" transform="translate(83,339)"/>
<path d="M0 0 C0.66 0 1.32 0 2 0 C0.62140072 3.19363953 -0.88108828 4.99361769 -3.5625 7.1875 C-10.67039645 13.21179699 -17.05410154 19.83443006 -23 27 C-23 22.55648059 -20.06812961 20.57634554 -17.125 17.5625 C-16.01919938 16.42206293 -14.91749194 15.2776399 -13.8203125 14.12890625 C-13.08192139 13.37202515 -13.08192139 13.37202515 -12.32861328 12.59985352 C-10.90313717 11.01137691 -10.90313717 11.01137691 -9.97216797 8.89819336 C-8.59740492 6.21391845 -6.58670158 5.47811519 -4 4 C-3.278125 3.278125 -2.55625 2.55625 -1.8125 1.8125 C-1.214375 1.214375 -0.61625 0.61625 0 0 Z " fill="#F6E7E7" transform="translate(119,99)"/>
<path d="M0 0 C5.91407641 4.64296861 10.09130889 9.76733672 14.4375 15.875 C15.07365234 16.75414062 15.70980469 17.63328125 16.36523438 18.5390625 C17.91799858 20.68724756 19.46260379 22.84080391 21 25 C20.01 25.33 19.02 25.66 18 26 C17.443125 25.17757812 16.88625 24.35515625 16.3125 23.5078125 C11.95772753 17.123501 7.49841492 10.95644004 2.53125 5.0234375 C1 3 1 3 0 0 Z " fill="#F3DCDC" transform="translate(392,121)"/>
<path d="M0 0 C0 4.16951918 -1.72957836 5.19414465 -4.5625 8.1875 C-8.3094793 12.17688402 -11.9399616 16.22392344 -15.4296875 20.44140625 C-17.1513534 22.15022389 -18.78698382 23.03719426 -21 24 C-20.61328125 23.56429688 -20.2265625 23.12859375 -19.828125 22.6796875 C-19.30734375 22.08414062 -18.7865625 21.48859375 -18.25 20.875 C-17.73953125 20.29492188 -17.2290625 19.71484375 -16.703125 19.1171875 C-14.88767636 16.93767077 -14.88767636 16.93767077 -13.15625 14.125 C-10.80481836 10.71712805 -8.21502342 7.98885464 -5.25 5.125 C-4.74339844 4.62742187 -4.23679687 4.12984375 -3.71484375 3.6171875 C-2.48114693 2.40676798 -1.24122216 1.20270147 0 0 Z " fill="#E4B1B1" transform="translate(399,380)"/>
<path d="M0 0 C0.66 0 1.32 0 2 0 C0.77472971 4.05281712 -0.69880494 7.44360764 -3 11 C-2.34 11 -1.68 11 -1 11 C-1.66 12.65 -2.32 14.3 -3 16 C-4.33333333 15.33333333 -5.66666667 14.66666667 -7 14 C-5.58163643 8.8423143 -3.32608425 4.20024742 0 0 Z " fill="#BE4343" transform="translate(79,144)"/>
<path d="M0 0 C3.94824545 2.87145124 6.94093102 6.14278702 10.0859375 9.828125 C13.22151735 13.38604826 16.60855859 16.68783904 20 20 C16.25646555 20 15.83114528 19.21606846 13.2421875 16.640625 C12.53449219 15.93679688 11.82679687 15.23296875 11.09765625 14.5078125 C10.36417969 13.76273437 9.63070312 13.01765625 8.875 12.25 C8.13378906 11.52039063 7.39257812 10.79078125 6.62890625 10.0390625 C5.92378906 9.33007812 5.21867187 8.62109375 4.4921875 7.890625 C3.84620605 7.24125977 3.20022461 6.59189453 2.53466797 5.92285156 C0.92657734 3.90800559 0.40411713 2.51995397 0 0 Z " fill="#EDCCCC" transform="translate(102,372)"/>
<path d="M0 0 C1 3 1 3 -0.65234375 6.57421875 C-1.40387723 7.95092168 -2.1660567 9.32185409 -2.9375 10.6875 C-3.51661133 11.7403418 -3.51661133 11.7403418 -4.10742188 12.81445312 C-5.06261773 14.54795672 -6.03015386 16.27465009 -7 18 C-7.66 17.34 -8.32 16.68 -9 16 C-7.68968564 13.51965551 -6.37686532 11.0406965 -5.0625 8.5625 C-4.68931641 7.85544922 -4.31613281 7.14839844 -3.93164062 6.41992188 C-1.11328125 1.11328125 -1.11328125 1.11328125 0 0 Z " fill="#FAF1F1" transform="translate(429,326)"/>
<path d="M0 0 C0.66 0.33 1.32 0.66 2 1 C1.2884375 1.6496875 1.2884375 1.6496875 0.5625 2.3125 C-1.23686957 4.02309613 -1.23686957 4.02309613 -2 7 C-4.06640625 8.38671875 -4.06640625 8.38671875 -6.5625 9.6875 C-7.80193359 10.34298828 -7.80193359 10.34298828 -9.06640625 11.01171875 C-9.70449219 11.33785156 -10.34257812 11.66398437 -11 12 C-8.57200213 6.75418808 -4.6891547 3.29977553 0 0 Z " fill="#F8EAEA" transform="translate(145,78)"/>
<path d="M0 0 C0.66 0 1.32 0 2 0 C0.61821263 3.81538304 -1.13689962 6.97291881 -3.4375 10.3125 C-4.03433594 11.19550781 -4.63117188 12.07851563 -5.24609375 12.98828125 C-5.82488281 13.65214844 -6.40367187 14.31601562 -7 15 C-7.99 15 -8.98 15 -10 15 C-8.3832351 12.4943127 -6.75724022 9.99557389 -5.125 7.5 C-4.66480469 6.78457031 -4.20460938 6.06914062 -3.73046875 5.33203125 C-3.28574219 4.65527344 -2.84101563 3.97851562 -2.3828125 3.28125 C-1.97434082 2.65283203 -1.56586914 2.02441406 -1.14501953 1.37695312 C-0.76716309 0.92255859 -0.38930664 0.46816406 0 0 Z " fill="#BE4343" transform="translate(417,357)"/>
<path d="M0 0 C0.99 0 1.98 0 3 0 C1.68139111 4.61513112 -0.21355437 8.09897612 -3 12 C-4.13671875 10.265625 -4.13671875 10.265625 -5 8 C-4.20703125 5.859375 -4.20703125 5.859375 -2.8125 3.75 C-2.36519531 3.04359375 -1.91789062 2.3371875 -1.45703125 1.609375 C-0.97621094 1.07828125 -0.49539063 0.5471875 0 0 Z " fill="#CA6868" transform="translate(414,342)"/>
<path d="M0 0 C0.66 0.33 1.32 0.66 2 1 C0.45730076 5.72065967 -1.07794619 10.41664092 -3 15 C-3.66 15 -4.32 15 -5 15 C-4.43174347 9.45949887 -2.37113483 4.96284034 0 0 Z " fill="#C45757" transform="translate(432,322)"/>
<path d="M0 0 C0.66 0.33 1.32 0.66 2 1 C-0.4312688 2.84214217 -2.86931698 4.67378239 -5.3125 6.5 C-6.00279297 7.02464844 -6.69308594 7.54929687 -7.40429688 8.08984375 C-8.07138672 8.58613281 -8.73847656 9.08242187 -9.42578125 9.59375 C-10.34484253 10.28500977 -10.34484253 10.28500977 -11.2824707 10.99023438 C-13 12 -13 12 -16 12 C-11.53122354 6.91484058 -6.00190775 3.11210031 0 0 Z " fill="#F1D7D7" transform="translate(146,86)"/>
<path d="M0 0 C1.1171875 1.734375 1.1171875 1.734375 2 4 C1.3203125 6.140625 1.3203125 6.140625 0.125 8.25 C-0.26429687 8.95640625 -0.65359375 9.6628125 -1.0546875 10.390625 C-1.36664063 10.92171875 -1.67859375 11.4528125 -2 12 C-2.99 12 -3.98 12 -5 12 C-4.505 10.6078125 -4.505 10.6078125 -4 9.1875 C-2.85032996 6.07970709 -2.85032996 6.07970709 -3 3 C-3 2.34 -3 1.68 -3 1 C-2.01 0.67 -1.02 0.34 0 0 Z " fill="#C65B5B" transform="translate(74,157)"/>
<path d="M0 0 C0.66 0 1.32 0 2 0 C1.34 1.98 0.68 3.96 0 6 C0.66 6 1.32 6 2 6 C1.34 7.98 0.68 9.96 0 12 C-2 10 -2 10 -3 8 C-3 4.40142046 -2.04169485 2.90548882 0 0 Z " fill="#C14D4D" transform="translate(84,150)"/>
<path d="M0 0 C2.85984547 2.51632049 4.41468822 5.33885553 6.1875 8.6875 C6.71730469 9.68136719 7.24710937 10.67523438 7.79296875 11.69921875 C8.19128906 12.45847656 8.58960937 13.21773438 9 14 C8.01 14 7.02 14 6 14 C4.9923048 12.2335343 3.99408286 10.46166177 3 8.6875 C2.443125 7.70136719 1.88625 6.71523438 1.3125 5.69921875 C0 3 0 3 0 0 Z " fill="#C14D4D" transform="translate(83,339)"/>
<path d="M0 0 C0 3 0 3 -1.35546875 4.6484375 C-1.96003906 5.21820313 -2.56460938 5.78796875 -3.1875 6.375 C-4.13882813 7.28572266 -4.13882813 7.28572266 -5.109375 8.21484375 C-6.04523438 9.09849609 -6.04523438 9.09849609 -7 10 C-7.98280891 10.97551082 -8.96254474 11.95413996 -9.9375 12.9375 C-10.618125 13.618125 -11.29875 14.29875 -12 15 C-12 12 -12 12 -9.375 9.08203125 C-8.25750594 7.98449244 -7.13214357 6.89492105 -6 5.8125 C-5.42765625 5.25369141 -4.8553125 4.69488281 -4.265625 4.11914062 C-2.85037212 2.73926907 -1.42602845 1.36873266 0 0 Z " fill="#C55757" transform="translate(108,108)"/>
<path d="M0 0 C0.66 0.33 1.32 0.66 2 1 C0.61714856 2.49131037 -0.78185739 3.96765185 -2.1875 5.4375 C-2.96480469 6.26121094 -3.74210937 7.08492188 -4.54296875 7.93359375 C-7.1461801 10.12294002 -8.66227956 10.67393495 -12 11 C-8.19588166 7.08060535 -4.18423892 3.50897269 0 0 Z " fill="#F7EAEA" transform="translate(385,394)"/>
<path d="M0 0 C1 2 1 2 0.375 4.3125 C-1.26624041 7.52037899 -3.36337053 9.57152549 -6 12 C-6 6.63590158 -3.73391546 3.73391546 0 0 Z " fill="#D38282" transform="translate(95,122)"/>
<path d="M0 0 C1.08667969 0.11085938 2.17335937 0.22171875 3.29296875 0.3359375 C4.12441406 0.43132812 4.95585937 0.52671875 5.8125 0.625 C5.4825 1.615 5.1525 2.605 4.8125 3.625 C-4.59752278 2.66144647 -4.59752278 2.66144647 -9.1875 1.625 C-5.54331659 -0.80445561 -4.25826636 -0.4578781 0 0 Z " fill="#EECECE" transform="translate(222.1875,443.375)"/>
<path d="M0 0 C0.66 0 1.32 0 2 0 C0.63746417 3.11824121 -0.85108253 5.04737351 -3.4375 7.25 C-4.33275391 8.03117187 -4.33275391 8.03117187 -5.24609375 8.828125 C-7 10 -7 10 -10 10 C-8.72920407 6.1876122 -7.39322116 5.972803 -4 4 C-2.9171875 2.9171875 -2.9171875 2.9171875 -1.8125 1.8125 C-1.214375 1.214375 -0.61625 0.61625 0 0 Z " fill="#F4DFDF" transform="translate(119,99)"/>
<path d="M0 0 C0.66 0.33 1.32 0.66 2 1 C1.2884375 1.6496875 1.2884375 1.6496875 0.5625 2.3125 C-1.23686957 4.02309613 -1.23686957 4.02309613 -2 7 C-5.08558124 8.02852708 -6.77356651 8 -10 8 C-6.7 5.36 -3.4 2.72 0 0 Z " fill="#EBC6C6" transform="translate(136,84)"/>
<path d="M0 0 C1 3 1 3 0.00390625 5.26171875 C-0.47175781 6.06222656 -0.94742187 6.86273438 -1.4375 7.6875 C-2.14712891 8.89986328 -2.14712891 8.89986328 -2.87109375 10.13671875 C-3.24363281 10.75160156 -3.61617188 11.36648438 -4 12 C-4.66 11.67 -5.32 11.34 -6 11 C-4.54955729 6.89041233 -2.48889248 3.56741255 0 0 Z " fill="#BD4242" transform="translate(428,339)"/>
<path d="M0 0 C1.32 0.33 2.64 0.66 4 1 C2.68 3.31 1.36 5.62 0 8 C-0.99 7.67 -1.98 7.34 -3 7 C-1.125 2.25 -1.125 2.25 0 0 Z " fill="#C75E5E" transform="translate(79,148)"/>
<path d="M0 0 C1.39195915 4.17587745 -0.17676781 6.13474776 -2 10 C-2.66 10 -3.32 10 -4 10 C-3.67 7.69 -3.34 5.38 -3 3 C-2.34 3 -1.68 3 -1 3 C-0.67 2.01 -0.34 1.02 0 0 Z " fill="#CE7474" transform="translate(76,174)"/>
<path d="M0 0 C0 3 0 3 -1.0625 5.0625 C-1.5265625 6.0215625 -1.5265625 6.0215625 -2 7 C-1.67 7.66 -1.34 8.32 -1 9 C-1.66 9.66 -2.32 10.32 -3 11 C-3.66 10.67 -4.32 10.34 -5 10 C-4.64766839 4.5388601 -4.64766839 4.5388601 -4 2 C-1.9375 0.5 -1.9375 0.5 0 0 Z " fill="#CF7777" transform="translate(89,146)"/>
<path d="M0 0 C3.28788824 3.11016455 5.83735988 6.01618925 8 10 C6.25 9.9375 6.25 9.9375 4 9 C1.99159505 6.29950956 0 3.44873267 0 0 Z " fill="#F8EDED" transform="translate(405,137)"/>
<path d="M0 0 C0.66 0 1.32 0 2 0 C1.74438677 2.3431213 1.40729228 4.67843403 1 7 C0.01 7.495 0.01 7.495 -1 8 C-1 7.34 -1 6.68 -1 6 C-1.99 6.33 -2.98 6.66 -4 7 C-2.79618552 4.50638429 -1.54571278 2.31856917 0 0 Z " fill="#BC3F3F" transform="translate(404,358)"/>
<path d="M0 0 C0.66 0 1.32 0 2 0 C0.54955729 4.10958767 -1.51110752 7.43258745 -4 11 C-5 8 -5 8 -4.07421875 5.95703125 C-3.61660156 5.24933594 -3.15898437 4.54164063 -2.6875 3.8125 C-2.23761719 3.09707031 -1.78773438 2.38164062 -1.32421875 1.64453125 C-0.88722656 1.10183594 -0.45023437 0.55914062 0 0 Z " fill="#BC3F3F" transform="translate(415,346)"/>
<path d="M0 0 C1.31223496 3.93670488 0.24296256 6.12488144 -1 10 C-1.99 9.67 -2.98 9.34 -4 9 C-2.25 2.25 -2.25 2.25 0 0 Z " fill="#BC3F3F" transform="translate(67,169)"/>
<path d="M0 0 C0.99 0.33 1.98 0.66 3 1 C1.6875 3.9375 1.6875 3.9375 0 7 C-0.99 7.33 -1.98 7.66 -3 8 C-2.45276317 4.62537285 -1.9451 2.91765 0 0 Z " fill="#C75D5D" transform="translate(88,130)"/>
<path d="M0 0 C-1.24976756 3.65316671 -1.67098753 4.78065836 -5 7 C-5.33 5.35 -5.66 3.7 -6 2 C-3 0 -3 0 0 0 Z " fill="#D58686" transform="translate(415,360)"/>
<path d="M0 0 C0.66 0 1.32 0 2 0 C0.90931332 3.77545388 0.0916909 6.47043472 -3 9 C-3 4.73350364 -2.43160605 3.36683915 0 0 Z " fill="#BD4343" transform="translate(420,346)"/>
<path d="M0 0 C0.99 0.33 1.98 0.66 3 1 C1.6875 3.9375 1.6875 3.9375 0 7 C-0.99 7.33 -1.98 7.66 -3 8 C-1.125 2.25 -1.125 2.25 0 0 Z " fill="#BD4242" transform="translate(70,160)"/>
<path d="M0 0 C0.66 0.33 1.32 0.66 2 1 C0.02 3.31 -1.96 5.62 -4 8 C-4.66 7.34 -5.32 6.68 -6 6 C-4.02 4.02 -2.04 2.04 0 0 Z " fill="#C14C4C" transform="translate(105,123)"/>
<path d="M0 0 C0.99 0 1.98 0 3 0 C2.34 1.98 1.68 3.96 1 6 C0.01 6 -0.98 6 -2 6 C-1.34 4.02 -0.68 2.04 0 0 Z " fill="#C14D4D" transform="translate(425,326)"/>
</svg>
