<?xml version="1.0" standalone="no"?>
<!DOCTYPE svg PUBLIC "-//W3C//DTD SVG 20010904//EN"
 "http://www.w3.org/TR/2001/REC-SVG-20010904/DTD/svg10.dtd">
<svg version="1.0" xmlns="http://www.w3.org/2000/svg"
 width="500.000000pt" height="500.000000pt" viewBox="0 0 500.000000 500.000000"
 preserveAspectRatio="xMidYMid meet">

<g transform="translate(0.000000,500.000000) scale(0.100000,-0.100000)"
fill="#000000" stroke="none">
<path d="M2250 4491 c-25 -3 61 -6 190 -6 258 0 342 -10 545 -67 104 -29 290
-97 283 -104 -2 -1 -55 15 -118 36 -399 135 -896 135 -1300 1 -476 -159 -867
-489 -1097 -925 -29 -56 -53 -97 -53 -92 0 18 110 217 169 305 68 101 133 181
240 296 l75 80 -93 -90 c-227 -220 -384 -472 -486 -777 -172 -517 -129 -1032
129 -1546 278 -554 765 -933 1371 -1069 94 -21 144 -25 340 -29 127 -3 257 -1
290 4 45 7 20 8 -95 4 -183 -6 -351 9 -510 44 -116 26 -335 92 -328 99 2 2 33
-5 68 -16 191 -59 395 -89 620 -89 431 0 794 105 1125 327 266 178 457 386
613 665 34 62 62 109 62 104 0 -15 -89 -175 -145 -261 -62 -95 -150 -207 -242
-307 l-67 -73 78 75 c400 388 621 971 576 1526 -21 270 -88 513 -210 759 -212
431 -505 732 -906 933 -189 95 -390 158 -595 187 -104 15 -435 18 -529 6z
m395 -91 c592 -56 1146 -401 1455 -905 56 -90 131 -243 160 -323 13 -34 25
-61 27 -59 5 6 -41 132 -78 215 -79 174 -216 376 -362 530 -72 76 -75 80 -22
33 191 -170 373 -428 465 -659 190 -476 171 -1050 -50 -1527 -39 -86 -107
-206 -135 -240 -9 -11 -4 0 10 25 70 118 196 411 195 453 0 7 -18 -33 -39 -88
-179 -472 -511 -839 -960 -1065 -470 -235 -992 -259 -1476 -68 -491 194 -891
590 -1086 1075 -39 99 -50 104 -13 7 101 -270 264 -517 476 -720 57 -54 83
-83 58 -64 -130 101 -286 270 -395 430 -288 422 -374 1044 -216 1575 36 120
106 292 163 395 42 77 135 220 143 220 3 0 -20 -38 -51 -85 -69 -106 -152
-279 -198 -413 -45 -130 -46 -158 -2 -37 54 147 92 229 158 342 85 146 163
249 282 372 271 278 595 457 988 545 189 42 329 52 503 36z m-1105 -231 c-211
-127 -449 -338 -591 -524 -225 -294 -370 -669 -399 -1035 -8 -102 -9 -101 -5
40 5 165 27 289 80 446 157 462 466 831 905 1081 105 59 113 54 10 -8z m-540
-493 c0 -2 -8 -10 -17 -17 -16 -13 -17 -12 -4 4 13 16 21 21 21 13z m3457
-1323 c-15 -360 -135 -676 -378 -1000 -150 -200 -417 -431 -609 -528 -49 -24
-38 -16 65 53 326 218 595 529 744 860 102 228 170 507 171 700 0 34 3 62 7
62 3 0 3 -66 0 -147z"/>
<path d="M4301 3054 c0 -11 3 -14 6 -6 3 7 2 16 -1 19 -3 4 -6 -2 -5 -13z"/>
<path d="M1205 2978 c-7 -57 -25 -220 -25 -235 0 -7 10 -13 23 -13 17 0 29 13
52 57 16 31 52 80 80 109 62 63 76 66 293 62 l153 -3 -321 -467 c-176 -258
-320 -475 -320 -483 0 -13 51 -15 410 -15 226 0 410 3 410 8 0 4 7 66 15 137
19 172 19 175 -5 175 -13 0 -27 -15 -44 -47 -38 -75 -112 -170 -148 -190 -28
-15 -64 -18 -242 -21 -173 -3 -208 -1 -199 10 39 49 643 940 643 948 0 7 -128
10 -384 10 l-385 0 -6 -42z"/>
<path d="M2080 2997 c0 -19 8 -25 46 -35 25 -7 56 -23 70 -37 l24 -24 0 -401
0 -401 -23 -23 c-14 -14 -42 -26 -70 -30 -41 -6 -47 -10 -47 -32 l0 -24 263 0
c280 0 355 9 426 52 99 59 135 120 136 228 0 62 -4 83 -25 120 -38 68 -120
117 -245 145 -29 7 -27 8 34 30 122 45 181 119 181 228 0 119 -69 189 -215
216 -32 6 -170 11 -307 11 l-248 0 0 -23z m520 -59 c59 -31 80 -73 80 -164 0
-143 -65 -205 -222 -212 l-88 -4 0 201 0 201 93 0 c77 0 100 -4 137 -22z m27
-460 c33 -17 57 -39 78 -72 26 -43 29 -57 28 -123 -1 -102 -38 -176 -103 -210
-39 -21 -56 -24 -128 -21 -77 3 -86 5 -108 31 -24 28 -24 32 -24 221 0 106 3
196 8 200 4 5 51 6 104 4 78 -4 107 -10 145 -30z"/>
<path d="M3050 2996 c0 -22 5 -26 47 -32 28 -4 56 -16 70 -30 l23 -23 0 -411
c0 -468 5 -442 -89 -455 -45 -6 -51 -10 -51 -31 l0 -24 220 0 220 0 0 24 c0
22 -5 25 -55 31 -90 12 -95 23 -95 225 l0 167 109 7 c222 13 338 89 377 247
14 55 14 75 4 124 -10 50 -20 66 -64 110 -83 82 -109 88 -438 93 l-278 4 0
-26z m485 -49 c80 -31 116 -87 123 -192 9 -136 -55 -222 -181 -246 -32 -5 -74
-9 -95 -7 l-37 3 -3 228 -2 227 82 -1 c46 0 97 -6 113 -12z"/>
<path d="M671 2994 c0 -11 3 -14 6 -6 3 7 2 16 -1 19 -3 4 -6 -2 -5 -13z"/>
<path d="M651 2914 c0 -11 3 -14 6 -6 3 7 2 16 -1 19 -3 4 -6 -2 -5 -13z"/>
<path d="M2120 4470 c-17 -6 -9 -7 25 -3 28 3 52 7 54 9 8 7 -54 2 -79 -6z"/>
<path d="M2058 4453 c7 -3 16 -2 19 1 4 3 -2 6 -13 5 -11 0 -14 -3 -6 -6z"/>
<path d="M1204 4028 l-19 -23 23 19 c12 11 22 21 22 23 0 8 -8 2 -26 -19z"/>
<path d="M3794 978 l-29 -33 33 29 c30 28 37 36 29 36 -2 0 -16 -15 -33 -32z"/>
<path d="M2868 533 c6 -2 18 -2 25 0 6 3 1 5 -13 5 -14 0 -19 -2 -12 -5z"/>
<path d="M2818 523 c6 -2 18 -2 25 0 6 3 1 5 -13 5 -14 0 -19 -2 -12 -5z"/>
</g>
</svg>
